<?xml version="1.0" encoding="UTF-8" standalone="no"?>
<svg
   xmlns:dc="http://purl.org/dc/elements/1.1/"
   xmlns:cc="http://creativecommons.org/ns#"
   xmlns:rdf="http://www.w3.org/1999/02/22-rdf-syntax-ns#"
   xmlns:svg="http://www.w3.org/2000/svg"
   xmlns="http://www.w3.org/2000/svg"
   xmlns:sodipodi="http://sodipodi.sourceforge.net/DTD/sodipodi-0.dtd"
   xmlns:inkscape="http://www.inkscape.org/namespaces/inkscape"
   width="119px"
   height="27px"
   viewBox="0 0 119 27"
   version="1.1"
   id="svg4852"
   sodipodi:docname="Group2.svg"
   inkscape:version="0.92.4 (5da689c313, 2019-01-14)">
  <metadata
     id="metadata4858">
    <rdf:RDF>
      <cc:Work
         rdf:about="">
        <dc:format>image/svg+xml</dc:format>
        <dc:type
           rdf:resource="http://purl.org/dc/dcmitype/StillImage" />
        <dc:title>Group 2</dc:title>
      </cc:Work>
    </rdf:RDF>
  </metadata>
  <defs
     id="defs4856" />
  <sodipodi:namedview
     pagecolor="#ffffff"
     bordercolor="#666666"
     borderopacity="1"
     objecttolerance="10"
     gridtolerance="10"
     guidetolerance="10"
     inkscape:pageopacity="0"
     inkscape:pageshadow="2"
     inkscape:window-width="743"
     inkscape:window-height="508"
     id="namedview4854"
     showgrid="false"
     inkscape:zoom="1.687549"
     inkscape:cx="65.691162"
     inkscape:cy="20.368999"
     inkscape:window-x="482"
     inkscape:window-y="145"
     inkscape:window-maximized="0"
     inkscape:current-layer="svg4852" />
  <!-- Generator: Sketch 55.2 (78181) - https://sketchapp.com -->
  <title
     id="title4843">Group 2</title>
  <desc
     id="desc4845">Created with Sketch.</desc>
  <path
     style="fill:#000000;stroke-width:0.29630405"
     d="m 84.59298,26.981689 c -1.202425,-0.396933 -1.627009,-0.841627 -2.729742,-2.859014 -0.95625,-1.749406 -1.310118,-2.131129 -2.330993,-2.514455 -2.912877,-1.093757 -4.049555,-2.741196 -4.031661,-5.843279 0.02386,-4.137369 2.209003,-7.3716765 5.47403,-8.1023597 2.222963,-0.4974768 4.013049,-0.016059 5.272018,1.4178167 1.185765,1.350509 1.457539,2.131667 1.457539,4.189337 0,2.090544 -0.630332,4.309739 -1.595838,5.618401 -0.664512,0.900709 -2.266743,2.27169 -2.902528,2.483618 -0.144208,0.04807 0.152778,0.853548 0.659954,1.789956 1.371954,2.533039 2.283756,2.857404 3.941298,1.40207 1.147488,-1.007509 1.378632,-1.080281 1.378632,-0.434031 0,1.670852 -2.83593,3.431877 -4.592709,2.85194 z m -1.214763,-8.061493 c 1.31908,-1.15817 2.067783,-3.1308 2.062389,-5.43381 -0.0044,-1.958647 -0.610801,-3.5109218 -1.571985,-4.0253293 -0.313522,-0.1677989 -1.135019,-0.3050882 -1.825542,-0.3050882 -1.097434,0 -1.413151,0.1645475 -2.507869,1.3070575 -1.703721,1.778099 -2.313672,4.47041 -1.597217,7.050055 0.665921,2.397679 3.482349,3.126151 5.440224,1.407115 z m -43.823458,2.41818 c -1.685395,-0.775921 -2.370377,-2.080259 -2.351926,-4.478502 0.0461,-5.993253 4.588394,-9.9934884 10.614833,-9.3481109 2.276593,0.2438025 2.826733,0.5377222 2.368483,1.2653903 -0.285001,0.4525677 -0.687301,0.5120839 -2.849457,0.4215494 -2.994947,-0.1254051 -4.575035,0.4284163 -6.06547,2.1259492 -2.168357,2.469652 -2.492198,7.85293 -0.517971,8.610509 2.238103,0.858843 3.93773,-1.477591 5.146937,-7.075391 0.482793,-2.235031 0.55977,-2.376019 1.347565,-2.468236 0.459534,-0.05379 0.927494,0.05101 1.039899,0.232895 0.112412,0.181883 -0.03663,1.425927 -0.331174,2.764539 -0.618926,2.81269 -0.711624,5.857161 -0.194101,6.374687 1.096025,1.096021 2.722446,-0.29185 2.990067,-2.5515 0.244655,-2.065708 0.791831,-3.143812 1.658011,-3.266804 0.661562,-0.09394 0.690149,-0.03465 0.499961,1.037065 -0.110952,0.625184 -0.270271,1.370037 -0.354044,1.65523 -0.258189,0.878932 0.288509,0.54236 1.232635,-0.758867 1.056538,-1.456156 2.375192,-2.212223 3.076262,-1.763818 0.351181,0.224613 0.442492,0.677719 0.36644,1.818341 -0.08858,1.328393 -0.0309,1.51918 0.45927,1.51918 0.80022,0 1.271696,-0.578462 1.271696,-1.56026 0,-1.733479 1.118938,-2.633913 1.767399,-1.422259 0.168699,0.315221 0.306726,1.58192 0.306726,2.814887 0,1.232969 0.122467,2.241762 0.272142,2.241762 0.562507,0 1.505686,-2.017191 1.505686,-3.220244 0,-0.829246 0.191224,-1.415545 0.592608,-1.816926 1.157221,-1.157223 2.266295,-0.410069 1.982968,1.335876 -0.151282,0.932257 -0.100068,1.034556 0.517963,1.034556 0.832889,0 1.217898,-0.438078 1.485555,-1.690317 0.211496,-0.9895 1.163592,-1.574643 1.695935,-1.042299 0.465971,0.465973 -0.703001,7.203717 -1.31701,7.591027 -0.771347,0.486552 -1.227548,-0.206314 -1.147973,-1.743516 0.0673,-1.300084 0.04492,-1.33707 -0.809123,-1.33707 -0.48308,0 -1.07074,-0.07384 -1.305913,-0.164078 -0.281089,-0.107869 -0.746392,0.332744 -1.358118,1.286044 -0.94944,1.479575 -2.065648,2.251313 -2.831263,1.957519 -0.454969,-0.174589 -1.061278,-1.620601 -1.061278,-2.531093 0,-0.64545 -0.09577,-0.659264 -1.37177,-0.197857 -1.442993,0.521791 -2.415097,-0.0069 -2.535488,-1.378884 -0.05108,-0.58199 -0.220874,-1.088709 -0.377345,-1.126046 -0.454449,-0.10844 -1.617556,1.832744 -2.107073,3.516624 -0.501391,1.724729 -1.092009,2.161088 -1.802277,1.331557 -0.462117,-0.539713 -0.505663,-0.539096 -1.781446,0.02526 -1.672845,0.739977 -3.129877,0.359961 -3.832982,-0.999695 l -0.4644,-0.898038 -0.937894,0.904544 c -0.896184,0.864313 -2.206508,1.540908 -2.957238,1.526992 -0.193103,-0.0036 -0.88444,-0.252051 -1.536307,-0.55216 z m 50.188235,-0.06924 c -0.561995,-0.561995 -0.614385,-0.880823 -0.499063,-3.037116 0.149764,-2.800529 0.677255,-4.143409 1.68365,-4.286347 0.654971,-0.09303 0.688144,-0.02734 0.52366,1.037062 -0.555388,3.593867 -0.578088,4.543881 -0.108629,4.543881 0.58792,0 1.475077,-1.469458 2.146676,-3.55565 0.523588,-1.626452 0.848706,-2.061019 1.54838,-2.06959 0.481695,-0.006 0.467715,0.863784 -0.05395,3.357181 -0.43334,2.071195 -0.368014,2.867989 0.233821,2.851244 0.739798,-0.02058 1.29599,-0.79614 1.487646,-2.074358 0.266652,-1.778255 1.136395,-3.148067 2.37339,-3.737945 1.707225,-0.814126 3.440785,0.02822 3.440785,1.671899 0,0.805818 -1.24586,2.668305 -1.78489,2.668305 -0.13786,0 -0.60718,0.135547 -1.042925,0.301216 -0.65724,0.249888 -0.73008,0.376113 -0.42745,0.74076 0.48729,0.58714 1.692705,0.554627 2.945485,-0.07944 0.83536,-0.422799 1.08893,-0.77845 1.3789,-1.933958 0.46734,-1.862349 1.11187,-2.79977 2.32162,-3.376658 1.69093,-0.806353 3.42425,0.04394 3.42425,1.679782 0,0.805818 -1.24584,2.668306 -1.78487,2.668306 -0.13786,0 -0.6072,0.135547 -1.04293,0.301216 -0.65727,0.249887 -0.7301,0.376112 -0.42748,0.740759 0.50654,0.610332 1.65725,0.548814 3.13743,-0.167732 1.22744,-0.594189 1.26198,-0.651815 1.60297,-2.673482 0.19169,-1.136411 0.55215,-2.269834 0.80103,-2.518715 0.4723,-0.472284 1.45219,-0.444301 1.37065,0.03914 -0.0259,0.153289 -0.13688,0.94539 -0.24673,1.760226 l -0.19972,1.481521 0.59862,-0.888912 c 1.44695,-2.148622 2.58522,-2.988383 3.60982,-2.663184 0.67869,0.215407 0.69112,0.430915 0.244,4.236091 -0.3689,3.139707 -0.78091,3.986402 -1.60641,3.301292 -0.41604,-0.345287 -0.46096,-0.764736 -0.29082,-2.71536 0.17202,-1.971818 0.1346,-2.306992 -0.25755,-2.306992 -0.51104,0 -1.39277,1.561976 -1.9673,3.485092 -0.53468,1.789676 -1.08118,2.17123 -1.81386,1.266405 -0.57517,-0.710306 -0.57646,-0.710438 -1.51567,-0.155637 -1.33837,0.790599 -3.51552,0.738557 -4.66531,-0.111519 l -0.90188,-0.666791 -1.07888,0.666791 c -1.34757,0.832829 -3.427445,0.886593 -4.721711,0.122054 -0.905519,-0.534901 -0.946599,-0.532915 -2.274686,0.109995 -1.07378,0.519809 -1.477868,0.587648 -1.960819,0.32918 -0.33457,-0.179057 -0.610357,-0.42087 -0.612851,-0.537361 -0.0027,-0.116492 -0.125753,-0.403367 -0.273908,-0.6375 -0.218072,-0.344637 -0.437317,-0.245897 -1.151405,0.518531 -1.039342,1.112619 -1.323253,1.154175 -2.161106,0.316317 z M 100.3302,17.351027 c 0.53046,-0.456297 0.74232,-0.862322 0.61841,-1.185215 -0.41796,-1.089185 -2.281194,-0.121751 -2.281194,1.184447 0,0.892326 0.625939,0.892616 1.662784,7.34e-4 z m 6.81497,0 c 0.53049,-0.456297 0.74236,-0.862322 0.61843,-1.185215 -0.41794,-1.089185 -2.28119,-0.121751 -2.28119,1.184447 0,0.892326 0.62593,0.892616 1.66276,7.34e-4 z M 68.370326,12.391581 c -1.371719,-0.798952 -0.01835,-2.7539392 1.44493,-2.087231 0.886195,0.40378 0.907758,1.341531 0.0447,1.946012 -0.765835,0.536411 -0.804815,0.540107 -1.489665,0.141219 z"
     id="path44"
     inkscape:connector-curvature="0" />
  <g
     id="g3802"
     transform="matrix(0.66558629,0,0,0.66558629,-70.342802,-13.832587)">
    <path
       style="fill:#a2a2a1;stroke-width:0.79819673"
       d="m 116.92083,58.915574 c -0.41097,-1.682965 -1.16558,-5.215069 -1.67691,-7.849118 -0.51133,-2.63405 -1.44043,-6.40131 -2.06466,-8.371689 -1.69475,-5.349461 -0.28127,-5.839274 3.89847,-1.350935 l 3.50318,3.761831 0.53613,-2.857786 c 0.63893,-3.405792 1.91822,-3.287388 3.76701,0.348651 0.72983,1.435369 1.51371,2.796505 1.74195,3.024747 0.22824,0.228242 1.54328,-3.144243 2.92231,-7.494412 1.37903,-4.350169 2.82589,-8.424859 3.21526,-9.054867 1.25685,-2.033633 2.95427,1.529768 4.01147,8.421305 1.52746,9.957025 1.64124,10.097217 4.64809,5.726908 1.41056,-2.050183 2.90659,-3.727606 3.32451,-3.727606 0.41792,0 0.75985,1.820996 0.75985,4.046658 v 4.046659 l 3.91403,-4.246208 c 2.15272,-2.335414 4.15376,-4.011179 4.44676,-3.723921 0.51282,0.502779 -5.66923,20.41689 -6.7104,21.616059 -0.28032,0.322868 -2.47249,-0.173294 -4.87147,-1.102583 -7.01158,-2.716058 -14.90573,-2.284231 -23.27023,1.272932 -1.07564,0.457436 -1.49915,-0.04516 -2.09535,-2.486625 z m 29.38486,-1.064446 c 0,-0.439008 -0.1584,-0.798197 -0.35199,-0.798197 -0.1936,0 -0.57398,0.359189 -0.84531,0.798197 -0.27132,0.439008 -0.11292,0.798197 0.352,0.798197 0.46491,0 0.8453,-0.359189 0.8453,-0.798197 z m -12.77115,-2.39459 c 0,-0.439008 -0.33799,-0.798197 -0.75109,-0.798197 -0.4131,0 -0.97308,0.359189 -1.2444,0.798197 -0.27132,0.439008 0.0667,0.798197 0.75109,0.798197 0.68442,0 1.2444,-0.359189 1.2444,-0.798197 z M 120.14812,36.150154 c 0.49334,-1.480035 2.21167,-1.72551 2.21167,-0.315953 0,0.695096 -0.56872,1.263811 -1.26381,1.263811 -0.6951,0 -1.12164,-0.426536 -0.94786,-0.947858 z m 24.56118,-0.249437 c 0,-0.658512 0.53878,-1.197295 1.19729,-1.197295 0.65851,0 1.1973,0.538783 1.1973,1.197295 0,0.658512 -0.53879,1.197295 -1.1973,1.197295 -0.65851,0 -1.19729,-0.538783 -1.19729,-1.197295 z m 9.23533,-0.141713 c -0.29069,-0.757517 0.0189,-1.871694 0.7128,-2.565632 1.10336,-1.103368 1.3579,-1.095347 2.53306,0.07982 0.71855,0.718544 1.08901,1.873079 0.82325,2.565633 -0.64017,1.668255 -3.41923,1.613742 -4.06911,-0.07982 z m -45.94395,-0.646319 c -1.32628,-1.598069 -0.44282,-3.60205 1.58796,-3.60205 0.90557,0 1.855,0.543357 2.10984,1.20746 0.45866,1.195253 -0.9471,3.581721 -2.10984,3.581721 -0.3315,0 -1.04608,-0.534209 -1.58796,-1.187131 z m 23.45056,-10.327731 c -0.7262,-1.892437 0.30132,-3.803672 1.88134,-3.499388 0.88362,0.17017 1.39926,0.996768 1.39926,2.243101 0,2.275362 -2.51933,3.240125 -3.2806,1.256287 z"
       id="path3816"
       inkscape:connector-curvature="0" />
    <path
       style="fill:#fcc502;stroke-width:0.79819673"
       d="m 141.51651,59.738706 c -7.38134,-2.625223 -11.48718,-2.457573 -22.05182,0.90042 -1.5837,0.503382 -1.81366,0.01209 -3.4218,-7.310199 -0.9482,-4.317417 -2.20501,-9.3764 -2.79291,-11.242185 -0.9142,-2.901345 -0.90469,-3.392336 0.0658,-3.392336 1.25769,0 3.952,2.523634 5.96526,5.587377 l 1.31129,1.995492 0.57514,-3.002054 c 0.80831,-4.219139 1.67179,-4.343868 3.62102,-0.523056 0.93042,1.823771 1.98983,3.003821 2.35423,2.622332 0.36441,-0.381489 1.64243,-3.926312 2.84004,-7.877386 2.13566,-7.045798 4.35003,-11.196064 4.35003,-8.15301 0,0.752585 0.29049,1.368337 0.64553,1.368337 0.35504,0 1.10781,3.1429 1.67281,6.984222 1.55982,10.60483 1.68332,10.748089 4.9133,5.699391 l 2.74582,-4.291915 0.3991,4.682549 0.39909,4.682548 3.43985,-4.089217 c 5.59579,-6.652152 5.9768,-5.396173 1.9678,6.48689 -1.96244,5.816859 -3.62278,10.607818 -3.68966,10.646576 -0.0669,0.03876 -2.45632,-0.759891 -5.30987,-1.774776 z m 4.78918,-1.981792 c 0,-0.439008 -0.35919,-0.576206 -0.7982,-0.304884 -0.439,0.271322 -0.79819,0.852501 -0.79819,1.291509 0,0.439009 0.35919,0.576207 0.79819,0.304884 0.43901,-0.271322 0.7982,-0.852501 0.7982,-1.291509 z m -6.38557,-1.502179 c 0,-0.439009 -0.1584,-0.798197 -0.352,-0.798197 -0.19359,0 -0.57398,0.359188 -0.8453,0.798197 -0.27132,0.439008 -0.11292,0.798196 0.35199,0.798196 0.46492,0 0.84531,-0.359188 0.84531,-0.798196 z m -6.38558,-0.798197 c 0,-0.439008 -0.33799,-0.798197 -0.75109,-0.798197 -0.4131,0 -0.97308,0.359189 -1.2444,0.798197 -0.27132,0.439008 0.0667,0.798197 0.75109,0.798197 0.68442,0 1.2444,-0.359189 1.2444,-0.798197 z m 14.7984,-7.782419 1.41266,-2.195041 -1.71995,1.520556 c -0.94598,0.836305 -1.71996,1.824073 -1.71996,2.195041 0,1.170795 0.57064,0.742781 2.02725,-1.520556 z M 120.51903,36.587581 c -0.63771,-0.637704 0.0832,-1.884159 1.08967,-1.884159 0.4131,0 0.75109,0.538783 0.75109,1.197295 0,1.23434 -0.94184,1.585781 -1.84076,0.686864 z m 24.7441,0 c -0.63771,-0.637704 0.0832,-1.884159 1.08967,-1.884159 0.4131,0 0.75109,0.538783 0.75109,1.197295 0,1.23434 -0.94185,1.585781 -1.84076,0.686864 z m 9.58425,0.0059 c -0.30785,-0.307862 -0.55972,-1.243232 -0.55972,-2.078614 0,-1.118574 0.47332,-1.451654 1.79594,-1.263812 1.17408,0.166746 1.79594,0.80405 1.79594,1.840527 0,1.583303 -1.97332,2.560725 -3.03216,1.501886 z m -47.20971,-1.818035 c -0.76302,-1.234586 0.4502,-3.264818 1.95097,-3.264818 1.53549,0 2.37284,1.38368 1.8114,2.993238 -0.40192,1.152226 -3.09784,1.346825 -3.76237,0.27158 z m 24.50003,-9.384327 c -1.45168,-0.580672 -1.22188,-3.20205 0.33302,-3.798719 1.66394,-0.638513 2.89675,0.520618 2.53552,2.38398 -0.2988,1.541337 -1.30788,2.039005 -2.86854,1.414739 z"
       id="path3814"
       inkscape:connector-curvature="0" />
    <path
       style="fill:#e0b00d;stroke-width:0.79819673"
       d="m 141.51651,59.738706 c -7.38134,-2.625223 -11.48718,-2.457573 -22.05182,0.90042 -1.5837,0.503382 -1.81366,0.01209 -3.4218,-7.310199 -0.9482,-4.317417 -2.20501,-9.3764 -2.79291,-11.242185 -0.9142,-2.901345 -0.90469,-3.392336 0.0658,-3.392336 1.25769,0 3.952,2.523634 5.96526,5.587377 l 1.31129,1.995492 0.57514,-3.002054 c 0.80831,-4.219139 1.67179,-4.343868 3.62102,-0.523056 0.93042,1.823771 1.98983,3.003821 2.35423,2.622332 0.36441,-0.381489 1.64243,-3.926312 2.84004,-7.877386 2.13566,-7.045798 4.35003,-11.196064 4.35003,-8.15301 0,0.752585 0.29049,1.368337 0.64553,1.368337 0.35504,0 1.10781,3.1429 1.67281,6.984222 1.55982,10.60483 1.68332,10.748089 4.9133,5.699391 l 2.74582,-4.291915 0.3991,4.682549 0.39909,4.682548 3.43985,-4.089217 c 5.59579,-6.652152 5.9768,-5.396173 1.9678,6.48689 -1.96244,5.816859 -3.62278,10.607818 -3.68966,10.646576 -0.0669,0.03876 -2.45632,-0.759891 -5.30987,-1.774776 z m 5.6157,-4.860253 c 0.57503,-2.096599 1.69943,-5.428346 2.49867,-7.403883 l 1.45315,-3.591885 -3.61125,3.990984 c -2.97032,3.282648 -3.75258,3.778483 -4.40754,2.793688 -0.43796,-0.658512 -0.66615,-2.20179 -0.5071,-3.429507 0.28907,-2.231264 0.28808,-2.230931 -2.31831,0.785078 -1.43413,1.65951 -2.85075,2.774052 -3.14804,2.47676 -0.50184,-0.501839 -1.80329,-6.21811 -3.1421,-13.800774 l -0.56372,-3.192787 -1.82813,5.763726 c -1.00548,3.17005 -2.53722,6.883648 -3.40388,8.252442 l -1.57574,2.488717 -1.69585,-2.155917 -1.69584,-2.155919 -0.79271,2.084992 c -1.04942,2.760174 -2.10393,2.62956 -4.11058,-0.509147 l -1.65849,-2.594139 0.55112,2.39459 c 0.30312,1.317025 0.96492,4.371095 1.47068,6.786822 0.81584,3.896886 1.60307,4.844371 3.31414,3.988834 0.2195,-0.109752 0.66849,-0.273733 0.99775,-0.364403 0.32925,-0.09067 1.49661,-0.409631 2.59413,-0.708803 5.62345,-1.532889 16.32813,-0.478274 18.64311,1.836701 1.18571,1.18571 1.80151,0.402222 2.93653,-3.73617 z M 120.51903,36.587581 c -0.63771,-0.637704 0.0832,-1.884159 1.08967,-1.884159 0.4131,0 0.75109,0.538783 0.75109,1.197295 0,1.23434 -0.94184,1.585781 -1.84076,0.686864 z m 24.7441,0 c -0.63771,-0.637704 0.0832,-1.884159 1.08967,-1.884159 0.4131,0 0.75109,0.538783 0.75109,1.197295 0,1.23434 -0.94185,1.585781 -1.84076,0.686864 z m 9.58425,0.0059 c -0.30785,-0.307862 -0.55972,-1.243232 -0.55972,-2.078614 0,-1.118574 0.47332,-1.451654 1.79594,-1.263812 1.17408,0.166746 1.79594,0.80405 1.79594,1.840527 0,1.583303 -1.97332,2.560725 -3.03216,1.501886 z m -47.20971,-1.818035 c -0.76302,-1.234586 0.4502,-3.264818 1.95097,-3.264818 1.53549,0 2.37284,1.38368 1.8114,2.993238 -0.40192,1.152226 -3.09784,1.346825 -3.76237,0.27158 z m 24.50003,-9.384327 c -1.45168,-0.580672 -1.22188,-3.20205 0.33302,-3.798719 1.66394,-0.638513 2.89675,0.520618 2.53552,2.38398 -0.2988,1.541337 -1.30788,2.039005 -2.86854,1.414739 z"
       id="path3812"
       inkscape:connector-curvature="0" />
    <path
       style="fill:#5f5f5f;stroke-width:0.79819673"
       d="m 141.51651,59.738706 c -7.38554,-2.626716 -11.46639,-2.459422 -22.06811,0.904679 -1.60642,0.509744 -1.81943,0.05056 -3.3912,-7.310199 -0.92241,-4.319759 -2.17189,-9.380659 -2.77662,-11.246444 -0.94503,-2.915696 -0.94009,-3.392336 0.0352,-3.392336 1.25769,0 3.952,2.523634 5.96526,5.587377 l 1.31129,1.995492 0.57514,-3.002054 c 0.80831,-4.219139 1.67179,-4.343868 3.62102,-0.523056 0.93042,1.823771 1.98983,3.003821 2.35423,2.622332 0.36441,-0.381489 1.64713,-3.926312 2.85049,-7.877386 1.20336,-3.951074 2.54113,-7.638413 2.97282,-8.194086 1.20454,-1.550486 2.52462,1.645104 3.70677,8.973159 1.61037,9.982664 1.71247,10.089202 4.89748,5.110758 l 2.73997,-4.282806 0.3991,4.682549 0.39909,4.682548 3.43985,-4.089217 c 5.59579,-6.652152 5.9768,-5.396173 1.9678,6.48689 -1.96244,5.816859 -3.62278,10.607818 -3.68966,10.646576 -0.0669,0.03876 -2.45632,-0.759891 -5.30987,-1.774776 z m 6.87351,-8.043016 2.45255,-7.751832 -3.30937,3.760848 c -1.82016,2.068467 -3.55933,3.760848 -3.86484,3.760848 -0.3055,0 -0.55546,-1.701878 -0.55546,-3.781952 V 43.90165 l -2.12297,2.983755 c -3.56842,5.015273 -4.1004,4.296429 -6.35704,-8.590098 -0.97247,-5.553265 -1.28017,-5.421168 -3.50779,1.505914 -3.1791,9.885811 -4.5122,11.171455 -6.92201,6.675603 l -1.39047,-2.594139 -0.42597,2.730239 c -0.60654,3.887668 -1.95672,3.859237 -4.42569,-0.09319 -1.18024,-1.889383 -1.97324,-2.88869 -1.76222,-2.22068 0.21102,0.66801 1.01226,4.080301 1.78052,7.582869 0.76827,3.502569 1.50613,6.494699 1.63969,6.649179 0.13355,0.15448 2.10635,-0.33809 4.384,-1.094602 5.0592,-1.680398 15.07223,-1.335675 18.71085,0.644169 1.31703,0.716617 2.58114,1.317321 2.80913,1.334898 0.228,0.01758 1.51819,-3.456366 2.86709,-7.719874 z M 120.51903,36.587581 c -0.63771,-0.637704 0.0832,-1.884159 1.08967,-1.884159 0.4131,0 0.75109,0.538783 0.75109,1.197295 0,1.23434 -0.94184,1.585781 -1.84076,0.686864 z m 24.7441,0 c -0.63771,-0.637704 0.0832,-1.884159 1.08967,-1.884159 0.4131,0 0.75109,0.538783 0.75109,1.197295 0,1.23434 -0.94185,1.585781 -1.84076,0.686864 z m 9.58425,0.0059 c -0.30785,-0.307862 -0.55972,-1.243232 -0.55972,-2.078614 0,-1.118574 0.47332,-1.451654 1.79594,-1.263812 1.17408,0.166746 1.79594,0.80405 1.79594,1.840527 0,1.583303 -1.97332,2.560725 -3.03216,1.501886 z m -47.20971,-1.818035 c -0.76302,-1.234586 0.4502,-3.264818 1.95097,-3.264818 1.53549,0 2.37284,1.38368 1.8114,2.993238 -0.40192,1.152226 -3.09784,1.346825 -3.76237,0.27158 z m 24.50003,-9.384327 c -1.45168,-0.580672 -1.22188,-3.20205 0.33302,-3.798719 1.66394,-0.638513 2.89675,0.520618 2.53552,2.38398 -0.2988,1.541337 -1.30788,2.039005 -2.86854,1.414739 z"
       id="path3810"
       inkscape:connector-curvature="0" />
    <path
       style="fill:#8c7010;stroke-width:0.79819673"
       d="m 116.06448,53.261497 c -0.96397,-4.28033 -2.12191,-9.164345 -2.57319,-10.853366 -0.45128,-1.689021 -0.5807,-3.305369 -0.28761,-3.591885 0.2931,-0.286516 2.06898,1.1703 3.9464,3.237369 3.6275,3.993921 4.41151,4.09093 4.41151,0.545849 0,-3.693765 1.51537,-3.428226 3.22729,0.56552 0.94415,2.202597 1.90704,3.47046 2.31207,3.044338 0.38175,-0.401634 1.82131,-4.411926 3.19902,-8.911761 1.37771,-4.499834 2.81026,-8.181516 3.18345,-8.181516 0.66817,0 1.79564,2.031423 1.99355,3.591885 0.48885,3.854417 2.35234,12.995857 2.82796,13.872669 0.43142,0.795344 1.34906,0.01882 3.30138,-2.793689 l 2.70389,-3.895209 0.24126,4.190533 c 0.13269,2.304793 0.58168,4.190533 0.99775,4.190533 0.41606,0 0.75648,-0.273085 0.75648,-0.606855 0,-0.819341 6.40412,-7.375113 7.2045,-7.375113 0.34937,0 -0.25739,2.424523 -1.34836,5.387829 -1.09097,2.963305 -2.68974,7.632756 -3.55283,10.376557 -0.86309,2.743802 -1.82422,4.977004 -2.13583,4.962672 -0.31162,-0.01433 -2.54212,-0.720982 -4.95666,-1.570335 -5.74213,-2.019882 -12.88674,-2.019882 -18.75762,0 -2.552,0.878016 -4.70789,1.596393 -4.79086,1.596393 -0.083,0 -0.93957,-3.502088 -1.90355,-7.782418 z m 32.35295,-1.596394 c 1.36397,-4.28033 2.39261,-7.884259 2.28587,-8.008733 -0.10675,-0.124472 -1.57288,1.581674 -3.25807,3.791435 -1.68518,2.209762 -3.34935,4.017749 -3.69815,4.017749 -0.3488,0 -0.63418,-1.701878 -0.63418,-3.781952 V 43.90165 l -2.12297,2.983755 c -3.56842,5.015273 -4.1004,4.296429 -6.35704,-8.590098 -0.97247,-5.553265 -1.28017,-5.421168 -3.50779,1.505914 -3.1791,9.885811 -4.5122,11.171455 -6.92201,6.675603 l -1.39047,-2.594139 -0.42597,2.730239 c -0.60654,3.887668 -1.95672,3.859237 -4.42569,-0.09319 -1.18024,-1.889383 -1.95599,-2.843738 -1.72389,-2.120787 0.23211,0.722952 1.04746,4.22504 1.8119,7.782419 1.50544,7.005626 1.76331,7.220297 6.36407,5.297975 3.80594,-1.590224 15.04258,-1.238411 18.30076,0.572987 1.31703,0.732204 2.58114,1.345662 2.80913,1.363239 0.228,0.01758 1.53052,-3.470131 2.8945,-7.750461 z M 120.76339,35.85361 c 0,-0.684421 0.35919,-1.022412 0.7982,-0.75109 0.43901,0.271323 0.7982,0.831303 0.7982,1.244403 0,0.413099 -0.35919,0.751089 -0.7982,0.751089 -0.43901,0 -0.7982,-0.559981 -0.7982,-1.244402 z m 24.38714,0.51438 c -0.257,-0.415835 -0.12705,-0.966336 0.28879,-1.223336 0.41583,-0.256999 0.96633,-0.127044 1.22333,0.288791 0.257,0.415834 0.12705,0.966335 -0.28879,1.223335 -0.41583,0.257 -0.96633,0.127044 -1.22333,-0.28879 z m 9.44044,-0.42905 c -0.55603,-1.449009 0.2516,-2.831912 1.65389,-2.831912 1.22096,0 1.96159,1.528277 1.45059,2.993238 -0.47694,1.367291 -2.55942,1.259074 -3.10448,-0.161326 z m -46.46399,-2.162253 c 0.1454,-1.026824 0.80315,-1.866954 1.46166,-1.866954 1.73107,0 1.49261,3.114052 -0.26437,3.452416 -1.13349,0.21829 -1.40231,-0.137679 -1.19729,-1.585462 z m 23.87343,-8.975699 c -1.12535,-1.355963 -0.52681,-2.868714 1.13503,-2.868714 1.72828,0 2.30221,1.631765 1.02363,2.910345 -1.01555,1.015548 -1.2856,1.010339 -2.15866,-0.04163 z"
       id="path3808"
       inkscape:connector-curvature="0" />
    <path
       style="fill:#645010;stroke-width:0.79819673"
       d="m 115.71497,51.665103 c -1.1608,-5.158346 -2.33762,-10.186986 -2.61514,-11.174754 -0.79071,-2.814311 0.84162,-2.137557 4.28805,1.777799 3.35008,3.805891 4.17371,3.871272 4.17371,0.331316 0,-3.693765 1.51537,-3.428226 3.22729,0.56552 0.94415,2.202597 1.90704,3.47046 2.31207,3.044338 0.38175,-0.401634 1.82131,-4.411926 3.19902,-8.911761 1.37771,-4.499834 2.83181,-8.181516 3.23133,-8.181516 0.86821,0 2.07323,4.087525 3.29437,11.174754 1.33516,7.74896 1.66239,7.988266 4.78064,3.496111 l 2.70389,-3.895209 0.24126,4.190533 c 0.13269,2.304793 0.58168,4.190533 0.99775,4.190533 0.41606,0 0.75648,-0.273085 0.75648,-0.606855 0,-0.819341 6.40412,-7.375113 7.2045,-7.375113 0.34937,0 -0.25739,2.424523 -1.34836,5.387829 -1.09097,2.963305 -2.68974,7.632756 -3.55283,10.376557 -0.86309,2.743802 -1.82422,4.977004 -2.13583,4.962672 -0.31162,-0.01433 -2.54212,-0.720982 -4.95666,-1.570335 -5.74213,-2.019882 -12.88674,-2.019882 -18.75762,0 -2.552,0.878016 -4.70601,1.596393 -4.78668,1.596393 -0.0807,0 -1.09643,-4.220465 -2.25724,-9.378812 z m 15.42498,4.850323 c 3.9919,-0.336835 6.29091,-0.06287 9.96999,1.188114 2.62993,0.894245 4.84649,1.561107 4.92568,1.481916 0.41639,-0.416386 4.95639,-15.272601 4.73493,-15.494064 -0.14374,-0.143734 -1.64013,1.546652 -3.32532,3.756413 -1.68518,2.209762 -3.34935,4.017749 -3.69815,4.017749 -0.3488,0 -0.63418,-1.698188 -0.63418,-3.77375 v -3.77375 l -2.4527,2.975554 c -1.34899,1.636554 -2.75254,2.975553 -3.11901,2.975553 -0.36647,0 -1.28304,-3.502089 -2.03683,-7.782419 -0.75378,-4.28033 -1.61398,-8.05267 -1.91154,-8.382978 -0.29756,-0.330308 -1.37423,2.004418 -2.39259,5.188279 -2.16453,6.767282 -3.7899,10.178921 -4.84946,10.178921 -0.41646,0 -1.39008,-1.167363 -2.1636,-2.59414 l -1.4064,-2.594139 -0.25787,2.136629 c -0.47311,3.919963 -2.09361,4.152559 -4.09697,0.588054 -0.99805,-1.775797 -1.97812,-3.065251 -2.17791,-2.865452 -0.1998,0.199798 0.16018,2.468338 0.79996,5.0412 0.63978,2.572862 1.39075,6.004557 1.66882,7.62599 l 0.50559,2.94806 3.36464,-1.201978 c 1.85055,-0.661088 5.69937,-1.398981 8.55292,-1.639762 z M 120.76339,35.85361 c 0,-0.684421 0.35919,-1.022412 0.7982,-0.75109 0.43901,0.271323 0.7982,0.831303 0.7982,1.244403 0,0.413099 -0.35919,0.751089 -0.7982,0.751089 -0.43901,0 -0.7982,-0.559981 -0.7982,-1.244402 z m 24.38714,0.51438 c -0.257,-0.415835 -0.12705,-0.966336 0.28879,-1.223336 0.41583,-0.256999 0.96633,-0.127044 1.22333,0.288791 0.257,0.415834 0.12705,0.966335 -0.28879,1.223335 -0.41583,0.257 -0.96633,0.127044 -1.22333,-0.28879 z m 9.44044,-0.42905 c -0.55603,-1.449009 0.2516,-2.831912 1.65389,-2.831912 1.22096,0 1.96159,1.528277 1.45059,2.993238 -0.47694,1.367291 -2.55942,1.259074 -3.10448,-0.161326 z m -46.46399,-2.162253 c 0.1454,-1.026824 0.80315,-1.866954 1.46166,-1.866954 1.73107,0 1.49261,3.114052 -0.26437,3.452416 -1.13349,0.21829 -1.40231,-0.137679 -1.19729,-1.585462 z m 23.87343,-8.975699 c -1.12535,-1.355963 -0.52681,-2.868714 1.13503,-2.868714 1.72828,0 2.30221,1.631765 1.02363,2.910345 -1.01555,1.015548 -1.2856,1.010339 -2.15866,-0.04163 z"
       id="path3806"
       inkscape:connector-curvature="0" />
    <path
       style="fill:#0a0806;stroke-width:0.79819673"
       d="m 115.98095,52.064202 c -1.01633,-4.938843 -2.21035,-9.789406 -2.65336,-10.77903 -1.51314,-3.380119 0.40472,-2.994568 3.82249,0.768443 3.6275,3.993921 4.41151,4.09093 4.41151,0.545849 0,-3.693765 1.51537,-3.428226 3.22729,0.56552 0.95083,2.218185 1.90701,3.473476 2.31895,3.044338 0.38553,-0.401634 1.83756,-4.411926 3.22673,-8.911761 1.38916,-4.499834 2.84016,-8.181516 3.22445,-8.181516 0.8424,0 2.05735,4.156166 3.26666,11.174754 1.33516,7.74896 1.66239,7.988266 4.78064,3.496111 l 2.70389,-3.895209 0.24126,4.190533 c 0.13269,2.304793 0.58168,4.190533 0.99775,4.190533 0.41606,0 0.75648,-0.273085 0.75648,-0.606855 0,-0.848646 6.53278,-7.493967 6.95348,-7.073268 0.47588,0.475878 -6.22317,20.457456 -6.84778,20.425213 -0.27764,-0.01433 -2.48034,-0.720982 -4.89488,-1.570335 -5.78412,-2.034652 -13.1605,-2.034652 -18.94945,0 -2.49811,0.878016 -4.58617,1.596393 -4.64013,1.596393 -0.054,0 -0.92965,-4.040871 -1.94598,-8.979713 z m 14.14361,4.586713 c 4.25214,-0.447874 6.60359,-0.05453 14.26641,2.386422 1.52311,0.485178 1.93251,-0.204669 4.45682,-7.509748 1.52881,-4.424201 2.55629,-8.044003 2.2833,-8.044003 -0.273,0 -1.84746,1.616349 -3.4988,3.591886 -1.65135,1.975537 -3.34376,3.591885 -3.76092,3.591885 -0.41716,0 -0.76381,-1.526551 -0.77034,-3.392336 l -0.0119,-3.392336 -2.64927,3.131472 c -1.4571,1.722309 -2.86488,2.782621 -3.12839,2.356249 -0.26351,-0.426372 -1.06521,-4.17026 -1.78156,-8.31975 -0.71635,-4.149492 -1.56269,-7.810498 -1.88077,-8.135572 -0.31808,-0.325073 -1.75177,2.988966 -3.18598,7.364532 -1.43421,4.375565 -2.94594,8.164643 -3.35939,8.420172 -0.41346,0.255529 -1.54059,-0.872409 -2.50475,-2.506529 -0.96415,-1.63412 -1.83099,-2.642908 -1.92631,-2.241752 -0.0953,0.401156 -0.39116,1.717143 -0.65743,2.924416 -0.66552,3.017496 -1.68359,2.753379 -3.82221,-0.991599 -1.81816,-3.183801 -3.66792,-4.442368 -2.6486,-1.80209 0.2966,0.768264 1.05964,3.73157 1.69565,6.585123 0.636,2.853554 1.33234,5.979599 1.54742,6.946767 0.37597,1.690668 0.51328,1.715361 3.56039,0.640279 1.74314,-0.615015 5.24261,-1.336584 7.77661,-1.603488 z M 120.76339,35.85361 c 0,-0.684421 0.35919,-1.022412 0.7982,-0.75109 0.43901,0.271323 0.7982,0.831303 0.7982,1.244403 0,0.413099 -0.35919,0.751089 -0.7982,0.751089 -0.43901,0 -0.7982,-0.559981 -0.7982,-1.244402 z m 24.38714,0.51438 c -0.257,-0.415835 -0.12705,-0.966336 0.28879,-1.223336 0.41583,-0.256999 0.96633,-0.127044 1.22333,0.288791 0.257,0.415834 0.12705,0.966335 -0.28879,1.223335 -0.41583,0.257 -0.96633,0.127044 -1.22333,-0.28879 z m 9.44044,-0.42905 c -0.55603,-1.449009 0.2516,-2.831912 1.65389,-2.831912 1.45635,0 2.11069,1.998401 1.01357,3.095523 -1.2159,1.215901 -2.13455,1.125115 -2.66746,-0.263611 z m -46.33066,-1.688269 c -0.66527,-1.733653 1.02363,-3.364012 2.23251,-2.155131 1.02172,1.021718 0.38877,3.406079 -0.90418,3.406079 -0.46656,0 -1.06431,-0.562927 -1.32833,-1.250948 z m 23.26307,-9.949161 c -0.30998,-0.501567 -0.18802,-1.287526 0.27103,-1.746575 1.07269,-1.072696 3.57363,-0.137039 3.13721,1.173701 -0.44428,1.334335 -2.70299,1.71399 -3.40824,0.572874 z"
       id="path3804"
       inkscape:connector-curvature="0" />
  </g>
</svg>
