<?xml version="1.0" encoding="UTF-8" standalone="no"?>
<svg
   xmlns:dc="http://purl.org/dc/elements/1.1/"
   xmlns:cc="http://creativecommons.org/ns#"
   xmlns:rdf="http://www.w3.org/1999/02/22-rdf-syntax-ns#"
   xmlns:svg="http://www.w3.org/2000/svg"
   xmlns="http://www.w3.org/2000/svg"
   xmlns:sodipodi="http://sodipodi.sourceforge.net/DTD/sodipodi-0.dtd"
   xmlns:inkscape="http://www.inkscape.org/namespaces/inkscape"
   width="62px"
   height="62px"
   viewBox="0 0 62 62"
   version="1.1"
   id="svg3976"
   sodipodi:docname="Group7.svg"
   inkscape:version="0.92.4 (5da689c313, 2019-01-14)">
  <metadata
     id="metadata3982">
    <rdf:RDF>
      <cc:Work
         rdf:about="">
        <dc:format>image/svg+xml</dc:format>
        <dc:type
           rdf:resource="http://purl.org/dc/dcmitype/StillImage" />
      </cc:Work>
    </rdf:RDF>
  </metadata>
  <defs
     id="defs3980" />
  <sodipodi:namedview
     pagecolor="#ffffff"
     bordercolor="#666666"
     borderopacity="1"
     objecttolerance="10"
     gridtolerance="10"
     guidetolerance="10"
     inkscape:pageopacity="0"
     inkscape:pageshadow="2"
     inkscape:window-width="1366"
     inkscape:window-height="697"
     id="namedview3978"
     showgrid="false"
     inkscape:zoom="3.8064516"
     inkscape:cx="-9.1949153"
     inkscape:cy="31"
     inkscape:window-x="-8"
     inkscape:window-y="-8"
     inkscape:window-maximized="1"
     inkscape:current-layer="svg3976" />
  <!-- Generator: Sketch 55.2 (78181) - https://sketchapp.com -->
  <title
     id="title3966">Group 7</title>
  <desc
     id="desc3968">Created with Sketch.</desc>
  <g
     id="g4011"
     transform="matrix(0.87226877,0,0,0.87226877,80.369407,13.608785)">
    <path
       style="fill:#cad0d3"
       d="m -64.898963,52.509126 c -1.70687,-1.70687 -2.923077,-2.355532 -2.923077,-1.559017 0,1.493864 -1.826216,2.989212 -2.647551,2.167876 -0.784722,-0.784722 1.58777,-4.876425 4.522928,-7.80044 4.20267,-4.186713 9.320142,-10.885342 8.315946,-10.885342 -0.506883,0 -2.06577,0.9 -3.464194,2 -5.102195,4.013388 -8.109252,1.680545 -7.575591,-5.877063 0.398709,-5.646449 -0.464889,-5.787415 -2.199385,-0.359009 -0.656567,2.05484 -1.581897,4.156072 -2.056289,4.669405 -1.688163,1.82674 -1.898474,-0.182839 -0.395571,-3.779793 1.829952,-4.379689 1.172046,-4.85438 -0.974613,-0.7032 -1.035671,2.002768 -1.52568,5.837901 -1.52568,11.940983 0,4.944854 -0.45,9.268758 -1,9.608677 -1.360899,0.841082 -1.319604,-17.511023 0.04767,-21.1849 0.576218,-1.548305 2.684895,-4.2077 4.685948,-5.909767 l 3.638277,-3.094667 -1.821036,-7.732764 c -1.455831,-6.181972 -1.601584,-8.46929 -0.726773,-11.405333 0.601844,-2.019913 0.834883,-6.161189 0.517864,-9.202837 -0.67952,-6.519666 0.847997,-8.647855 5.402304,-7.526671 1.51566,0.373127 3.804621,0.763581 5.086579,0.867676 1.281958,0.104095 2.901452,0.969768 3.598877,1.923719 0.697424,0.953952 1.576879,1.425622 1.954344,1.048156 0.713468,-0.713468 4.511943,2.958321 8.326076,8.048387 1.694751,2.261691 1.97638,3.386246 1.207725,4.82249 -1.351546,2.525387 -0.08841,4.465326 4.396166,6.751694 l 3.733564,1.903479 1.501887,-2.904331 c 0.826039,-1.597382 2.214565,-2.904331 3.085614,-2.904331 1.2783,0 1.459101,0.723199 0.937509,3.75 -0.35542,2.0625 -0.904433,8.5875 -1.22003,14.5 -0.315597,5.9125 -0.938277,10.75 -1.383734,10.75 -1.53243,0 -1.947759,-5.516985 -1.053945,-14 0.492582,-4.675 0.713244,-8.6875 0.490359,-8.916667 -0.222885,-0.229166 -0.412136,-0.0042 -0.420558,0.5 -0.0084,0.504167 -0.461733,1.591667 -1.007358,2.416667 -0.841534,1.272421 -1.303501,1.120701 -3.04488,-1 l -2.052834,-2.5 1.556526,3.193249 c 2.02167,4.147505 0.192883,5.423829 -1.919233,1.339447 -0.862548,-1.667983 -1.672455,-3.032696 -1.799794,-3.032696 -0.127339,0 -0.07353,1.986553 0.119579,4.414563 0.293229,3.686871 -6.81e-4,4.602833 -1.783009,5.556706 -1.73779,0.930037 -2.752117,0.760195 -5.461932,-0.914563 -1.830301,-1.131188 -3.659437,-2.056706 -4.064746,-2.056706 -0.754184,0 -0.191747,0.685809 7.96146,9.707825 2.588475,2.864303 4.536613,5.716939 4.329195,6.339191 -0.207417,0.622251 -2.545327,-1.27127 -5.195355,-4.207825 -2.650028,-2.936555 -6.23665,-6.831446 -7.97027,-8.655313 -3.059483,-3.218751 -3.095039,-3.358225 -1.210906,-4.75 1.067621,-0.788633 1.460221,-1.433878 0.872444,-1.433878 -1.933862,0 -3.498463,2.842105 -2.791254,5.070325 0.500338,1.576425 0.318613,2.045011 -0.667381,1.720869 -2.587143,-0.850515 -2.156765,-5.408617 0.724693,-7.675172 3.289372,-2.587421 5.697568,-2.756594 5.210358,-0.366022 -0.220014,1.079532 0.718965,2.420468 2.450846,3.5 3.578214,2.230407 5.763368,2.230407 5.743851,0 -0.01284,-1.467765 -0.165351,-1.512755 -0.945627,-0.27896 -1.628076,2.574361 -2.142006,0.450524 -1.059663,-4.379106 0.740797,-3.305582 0.731255,-5.264069 -0.0326,-6.691345 -0.593969,-1.109841 -0.776866,-3.397796 -0.406437,-5.084346 0.46704,-2.12642 0.334171,-2.856733 -0.433427,-2.382331 -0.608813,0.376267 -1.106933,1.557564 -1.106933,2.625105 0,1.067541 -0.501095,1.940983 -1.113544,1.940983 -0.753062,0 -0.895088,-1.456763 -0.438727,-4.5 0.415016,-2.767522 0.292176,-4.5 -0.319068,-4.5 -1.353592,0 -2.317402,3.344573 -1.544347,5.359123 0.676952,1.764108 -1.060037,2.298192 -2.084314,0.640877 -0.339919,-0.55 -1.553433,-1 -2.696698,-1 -1.931281,0 -2.032832,-0.389968 -1.432248,-5.5 0.551076,-4.688799 0.405127,-5.5 -0.989548,-5.5 -1.36282,0 -1.554906,0.843594 -1.150474,5.052599 0.395395,4.114952 0.218251,4.950049 -0.954558,4.5 -0.792027,-0.30393 -1.619636,-0.552599 -1.839131,-0.552599 -0.219495,0 -0.134553,-1.929949 0.18876,-4.288776 0.637175,-4.648703 -1.192538,-7.475312 -4.113368,-6.354484 -2.392285,0.918006 -2.007327,7.351507 0.487265,8.14326 2.269388,0.720276 2.711926,2.5 0.621638,2.5 -0.773723,0 -1.826706,1.766339 -2.400428,4.026628 -1.054913,4.156031 -0.360409,8.755169 3.167135,20.973372 2.170401,7.517525 2.119324,11.977098 -0.138345,12.078947 -1.020974,0.04606 -1.23534,0.287044 -0.514577,0.578475 0.679482,0.274739 2.548949,-0.435787 4.15437,-1.578948 3.124388,-2.22476 6.599606,-2.713661 7.614673,-1.071247 0.567424,0.918111 -3.366339,6.280088 -9.34285,12.734918 -2.271458,2.45325 -2.285669,2.578246 -0.496528,4.367388 1.013021,1.013021 3.207109,2.114906 4.87575,2.448635 6.076754,1.21535 9.303167,-4.544244 9.415611,-16.808168 0.02395,-2.6125 0.493551,-4.75 1.043551,-4.75 1.311511,0 1.283257,11.439952 -0.04002,16.204514 -2.159327,7.774816 -10.576997,10.332313 -16.036901,4.872409 z m 11.683568,-59.659607 c -0.299132,-0.779524 -0.999425,-1.417316 -1.556208,-1.417316 -1.363753,0 -2.433815,4.566563 -1.581173,6.747764 0.58685,1.501259 0.899542,1.346504 2.183107,-1.080448 0.823982,-1.557977 1.253405,-3.470477 0.954274,-4.25 z"
       id="path4023"
       inkscape:connector-curvature="0" />
    <path
       style="fill:#b6bfc2"
       d="m -62.587375,53.97387 c -1.795934,-0.801908 -3.551841,-2.20464 -3.902017,-3.117182 -0.542816,-1.414558 -0.83019,-1.310152 -1.94923,0.708173 -1.309392,2.361652 -1.312632,2.362027 -1.347983,0.155985 -0.01952,-1.217974 1.649137,-3.9963 3.714565,-6.184791 5.011796,-5.310411 9.601432,-11.103852 8.79661,-11.103852 -0.357706,0 -2.379063,0.994907 -4.491905,2.210904 -3.365346,1.936848 -4.053861,2.034686 -5.554474,0.789288 -1.342269,-1.113984 -1.618026,-2.566199 -1.274315,-6.710905 0.241246,-2.909108 0.273115,-5.289287 0.07082,-5.289287 -0.202295,0 -1.235826,2.025 -2.296735,4.5 -1.060909,2.475 -2.371955,4.5 -2.913436,4.5 -0.554989,0 -0.346499,-1.526978 0.477883,-3.5 1.778763,-4.257179 1.071889,-4.631219 -1.038767,-0.54966 -1.035671,2.002768 -1.52568,5.837901 -1.52568,11.940983 0,4.944854 -0.45,9.268758 -1,9.608677 -0.640138,0.395627 -1,-2.836228 -1,-8.980821 0,-7.657601 0.408586,-10.399751 2.020324,-13.559017 1.111178,-2.178089 2.376325,-3.960162 2.811438,-3.960162 0.435113,0 1.737451,-0.881646 2.894084,-1.959213 2.005323,-1.868243 2.034642,-2.18166 0.631446,-6.75 -0.809337,-2.634933 -1.394547,-7.265787 -1.300467,-10.290787 0.09408,-3.025 0.110435,-8.27101 0.03634,-11.657801 -0.09708,-4.437685 0.310053,-6.602564 1.457489,-7.75 1.951014,-1.951013 4.819426,-2.056128 6.333247,-0.232085 0.639814,0.770928 2.203628,1.154647 3.610007,0.885801 1.676632,-0.320509 2.682074,0.04912 3.100639,1.139885 0.340685,0.88781 1.225827,1.6142 1.966983,1.6142 0.741156,0 2.534776,1.187219 3.985821,2.638264 2.342448,2.342448 2.562897,3.140853 1.966091,7.120637 -0.46736,3.116581 -0.990549,4.163996 -1.717046,3.437499 -0.726497,-0.726497 -0.720513,-1.975331 0.01964,-4.098532 0.74394,-2.134068 0.747684,-3.249468 0.01243,-3.703879 -1.519265,-0.938957 -2.937876,1.725335 -2.319371,4.356011 0.291797,1.241092 0.05798,2.25 -0.521433,2.25 -1.808876,0 -2.267512,-2.91018 -0.957183,-6.073595 0.970388,-2.342723 0.986915,-3.309006 0.07224,-4.223681 -1.77884,-1.77884 -3.28072,1.074748 -2.691151,5.11322 0.335996,2.301528 0.117647,3.189725 -0.713742,2.903359 -0.711482,-0.245067 -1.197826,-2.403449 -1.197826,-5.315944 0,-5.974817 -1.756126,-7.169658 -2.644089,-1.798998 -0.354249,2.142602 -0.241749,4.045639 0.25,4.228972 1.742324,0.649572 0.864883,1.97179 -0.987112,1.487483 -1.558503,-0.407558 -1.858695,-1.377844 -1.75,-5.656381 0.1239,-4.877051 -0.0079,-5.164435 -2.368799,-5.164435 -2.176256,0 -2.540783,0.49554 -2.814934,3.826639 -0.260312,3.16295 0.04125,3.919785 1.738752,4.36369 1.129528,0.295378 1.802654,0.943231 1.495836,1.439673 -0.306818,0.496442 -0.920562,0.678454 -1.363876,0.404471 -1.33674,-0.826151 -3.307698,8.020828 -2.587501,11.614438 0.369376,1.843099 1.514646,6.051089 2.545044,9.351089 1.855716,5.943199 2.544904,11.137722 1.990141,15 -0.160208,1.115373 -0.604053,0.230747 -1.003462,-2 l -0.716189,-4 -0.141906,4.25 c -0.162287,4.860435 1.105544,5.416397 5.130966,2.25 3.003907,-2.362874 5.037659,-2.535687 6.671606,-0.566902 0.959233,1.155806 0.682798,1.765015 -1.428668,3.1485 -1.439918,0.943471 -3.27484,2.985525 -4.077603,4.537898 -0.802763,1.552374 -2.436197,3.732363 -3.629852,4.844422 l -2.170282,2.021925 2.355278,2.507079 c 2.64033,2.810502 7.364769,3.309612 10.294261,1.08753 2.422795,-1.837742 3.712389,-6.813499 3.712389,-14.32385 0,-3.504401 0.439887,-6.256602 1,-6.256602 2.511413,0 0.259962,18.184482 -2.606331,21.050776 -2.613343,2.613342 -7.256021,3.233624 -11.159004,1.490891 z m 15.53232,-22.702476 c -2.570455,-2.936555 -6.076686,-6.792707 -7.791626,-8.569226 -1.714939,-1.77652 -2.834403,-3.68902 -2.487698,-4.25 1.019982,-1.650365 4.486453,-1.174586 7.601144,1.04327 3.276594,2.333141 4.965782,1.849742 4.795194,-1.372252 -0.09056,-1.710396 -0.216832,-1.804439 -0.575682,-0.42874 -0.976944,3.745237 -2.012447,0.536177 -1.211098,-3.753235 0.510027,-2.730045 0.458011,-5.548644 -0.13099,-7.097832 -0.571821,-1.504003 -0.614266,-3.217681 -0.102355,-4.132416 0.481031,-0.859555 0.637559,-2.469279 0.34784,-3.577165 -0.378914,-1.448973 -0.170945,-1.794432 0.740974,-1.230835 0.820072,0.506832 1.071358,1.993633 0.711616,4.210464 -0.590033,3.635947 1.818299,7.318776 4.786006,7.318776 0.79767,0 1.87877,0.765615 2.402443,1.701368 0.805602,1.439531 1.190141,1.131735 2.498664,-2 2.030782,-4.860348 5.145117,-5.18829 4.286451,-0.451368 -1.43809,7.933377 -2.584676,21.113753 -2.029241,23.326781 0.394468,1.571685 0.179814,2.423219 -0.610843,2.423219 -0.914057,0 -1.094191,-2.689416 -0.720024,-10.75 0.274455,-5.9125 0.779226,-11.875 1.121713,-13.25 0.537574,-2.158225 0.473085,-2.124047 -0.471718,0.25 -0.601932,1.5125 -1.533479,2.75 -2.070105,2.75 -0.536626,0 -0.697569,0.45 -0.35765,1 1.247307,2.018186 -1.30881,0.92927 -2.934248,-1.25 -1.481847,-1.986755 -1.601891,-2.016005 -1.026038,-0.25 0.358685,1.1 0.882129,2.5625 1.163209,3.25 1.123602,2.748244 -1.449596,1.036366 -3.006288,-2 l -1.666218,-3.25 0.579773,3.663061 c 1.218845,7.700791 -1.745335,9.770636 -8.242156,5.75538 -1.852419,-1.144858 -3.368034,-1.766765 -3.368034,-1.382015 0,0.963636 5.195959,7.216427 9.610136,11.564788 2.010647,1.980668 3.470025,4.158304 3.243062,4.839191 -0.233838,0.701514 -2.437888,-1.075698 -5.086213,-4.101214 z M -60.33758,21.38324 c -0.982229,-3.09473 1.989006,-6.964348 5.288593,-6.887651 l 2.726947,0.06339 -2.47177,0.986427 c -3.194184,1.274727 -4.175246,2.846153 -3.51913,5.6368 0.661293,2.812662 -1.139006,2.991422 -2.02464,0.201037 z"
       id="path4021"
       inkscape:connector-curvature="0" />
    <path
       style="fill:#98a5a9"
       d="m -62.587375,53.934887 c -1.795934,-0.780467 -3.551841,-2.165657 -3.902017,-3.078199 -0.542816,-1.414558 -0.83019,-1.310152 -1.94923,0.708173 l -1.312547,2.367342 -0.03544,-2.306371 c -0.01987,-1.293317 1.239135,-3.489524 2.866317,-5 4.112153,-3.817215 10.294272,-12.193629 8.999372,-12.193629 -0.597116,0 -2.22983,0.9 -3.628253,2 -1.398424,1.1 -3.141069,2 -3.872546,2 -2.340157,0 -3.649429,-4.02035 -3.058032,-9.390224 l 0.562752,-5.109776 -2.518664,5.25 c -1.385265,2.8875 -2.912214,5.25 -3.393219,5.25 -0.481006,0 -0.229014,-1.2375 0.55998,-2.75 1.950151,-3.738431 1.814878,-5.046167 -0.303142,-2.93059 -1.385609,1.38401 -1.819616,3.875253 -2.084334,11.964285 -0.437098,13.356475 -2.165666,15.312175 -2.165666,2.450232 0,-10.751331 1.561494,-15.626102 5.717913,-17.850551 3.774002,-2.019784 4.450048,-4.155871 2.797583,-8.839456 -0.802447,-2.274377 -1.461323,-5.577185 -1.46417,-7.339575 -0.03491,-21.61738 1.071777,-25.393762 6.661734,-22.731967 1.532817,0.729888 3.91194,1.372194 5.28694,1.427346 2.389279,0.09583 2.5,0.377053 2.5,6.349723 0,3.729382 -0.403246,6.110479 -1,5.904822 -0.992921,-0.342186 -1.153664,-3.86028 -0.395416,-8.654269 0.272141,-1.720597 -0.06694,-2.5 -1.087621,-2.5 -1.65059,0 -3.431637,7.76643 -1.911052,8.333333 0.491749,0.183334 0.894089,0.768194 0.894089,1.29969 0,0.607025 -0.617616,0.620722 -1.660963,0.03684 -1.170473,-0.65503 -1.687255,-2.367703 -1.75,-5.79969 -0.08235,-4.504441 -0.276778,-4.870173 -2.589037,-4.870173 -2.16803,0 -2.541276,0.499023 -2.810844,3.758037 -0.222464,2.689538 0.13294,3.928332 1.25,4.356988 0.858464,0.329424 1.560844,1.075808 1.560844,1.65863 0,0.582823 -0.307494,0.752185 -0.683319,0.376359 -0.954613,-0.954613 -3.316681,4.998812 -3.316681,8.359461 0,1.52892 0.90672,5.715471 2.014932,9.303447 2.747756,8.896198 3.879988,15.419095 3.127223,18.01623 -0.478429,1.650639 -0.774493,1.092496 -1.235488,-2.329152 l -0.60628,-4.5 -0.150193,4.75 c -0.170169,5.381733 0.70035,5.829213 5.349806,2.75 5.794493,-3.837541 8.406253,-1.228005 3.805987,3.802748 -3.90165,4.26676 -8.305987,9.858645 -8.305987,10.545542 0,1.613458 4.738128,4.65171 7.254303,4.65171 6.34822,0 8.729289,-4.138476 8.74012,-15.190983 0.0031,-3.130041 0.433325,-5.955346 0.956129,-6.278457 1.173435,-0.725222 -3.073072,-7.262809 -6.605807,-10.169777 -4.887409,-4.021684 0.369675,-6.124448 5.74406,-2.297548 3.271168,2.329277 4.944436,1.854956 4.84091,-1.372252 -0.06768,-2.109759 -0.10153,-2.116839 -0.913095,-0.190983 -0.579477,1.375108 -0.854872,-0.0309 -0.881416,-4.5 -0.02123,-3.575 -0.06517,-7.625 -0.09764,-9 -0.115315,-4.883521 0.09969,-6 1.155427,-6 0.665981,0 0.851359,1.339279 0.491944,3.554093 -0.440422,2.713999 -0.116789,4.014053 1.369158,5.5 1.070249,1.070249 2.363764,1.945907 2.874478,1.945907 0.510715,0 1.642438,0.713866 2.51494,1.586368 1.448491,1.448491 1.716607,1.274664 3.084849,-2 2.598098,-6.218123 5.413408,-3.797543 3.565385,3.06549 -0.571885,2.123817 -1.257298,7.851352 -1.523141,12.727854 -0.265842,4.876502 -0.776232,9.148499 -1.134199,9.493328 -0.807023,0.777401 0.09005,-20.437793 1.009463,-23.87304 0.596394,-2.228345 0.477101,-2.174014 -1.097829,0.5 -0.971811,1.65 -1.672679,3.3375 -1.557484,3.75 0.416832,1.492629 -0.937484,0.69402 -3.391683,-2 l -2.505197,-2.75 1.626899,3.34293 c 2.174686,4.468517 1.270949,5.057809 -1.455374,0.948992 l -2.184288,-3.291922 0.610809,3.121652 c 0.335945,1.716909 0.313957,4.304409 -0.04886,5.75 -0.815453,3.249027 -3.417424,3.42522 -8.074823,0.546789 -1.852423,-1.144858 -3.368038,-1.823752 -3.368038,-1.508654 0,1.012783 7.017703,9.80433 10.196285,12.773571 1.693016,1.581513 2.828949,3.124741 2.524296,3.429394 -0.304653,0.304653 -1.603914,-0.496085 -2.887248,-1.779419 l -2.333333,-2.333333 -0.752324,8.304153 c -0.852713,9.412257 -2.704496,13.848732 -6.360672,15.238808 -3.251547,1.236236 -4.210672,1.172672 -8.152339,-0.540277 z M -60.33758,21.38324 c -0.97817,-3.081939 1.988541,-6.959263 5.288593,-6.911895 2.691971,0.03864 2.683806,0.05787 -0.636629,1.499481 -2.942431,1.277494 -3.308436,1.836026 -2.923192,4.460858 0.498076,3.393614 -0.73779,4.073863 -1.728772,0.951556 z M -50.260807,3.260344 c -0.393382,-0.919523 -0.199361,-2.635788 0.431158,-3.813923 0.869045,-1.623827 0.858052,-2.489497 -0.04544,-3.57814 -0.882266,-1.063064 -0.892139,-1.436078 -0.03801,-1.436078 1.798273,0 2.226243,2.228053 1.256739,6.542706 -0.651461,2.899239 -1.080438,3.510292 -1.604446,2.285435 z m -4.127102,-1.934719 c -0.376146,-0.608618 -0.09432,-2.893027 0.626278,-5.076464 1.112449,-3.370753 1.093567,-4.106955 -0.125114,-4.87811 -1.198858,-0.75861 -1.164641,-0.910745 0.207716,-0.923535 2.281747,-0.02127 2.967564,2.369045 1.712605,5.969023 -0.582995,1.67238 -0.803129,3.710059 -0.489188,4.528177 0.659657,1.719038 -0.913613,2.029173 -1.932297,0.380909 z"
       id="path4019"
       inkscape:connector-curvature="0" />
    <path
       style="fill:#718389"
       d="m -60.495152,54.736546 c -1.195211,-0.232812 -3.326726,-1.576908 -4.7367,-2.986882 l -2.563588,-2.563588 -0.949914,2.373063 c -0.72625,1.81431 -0.964838,1.949344 -1.0133,0.573498 -0.03486,-0.989761 1.556496,-3.464761 3.536352,-5.5 1.979855,-2.035239 4.227285,-4.910617 4.994288,-6.38973 0.767003,-1.479112 2.330171,-3.344629 3.473706,-4.145592 1.143535,-0.800963 1.671278,-1.708379 1.172762,-2.016479 -0.498516,-0.3081 -2.528025,0.541746 -4.51002,1.888546 -2.004484,1.362082 -4.30124,2.181028 -5.175682,1.845473 -2.784006,-1.068323 -3.205191,-6.327392 -1.031736,-12.882652 0.543141,-1.638142 0.29122,-1.547678 -1.392375,0.5 -1.130521,1.375 -2.332032,3.73234 -2.670024,5.238532 -0.337991,1.506193 -1.078119,3.025046 -1.644728,3.37523 -0.948756,0.586364 -0.642247,-1.184686 0.928287,-5.363762 0.258369,-0.6875 0.02048,-1.25 -0.528647,-1.25 -2.151007,0 -3.901536,7.433406 -3.449411,14.647495 0.246373,3.931123 0.06228,7.836029 -0.409103,8.67757 -1.298913,2.318909 -0.894124,-17.35693 0.421908,-20.507968 0.616283,-1.475597 2.471255,-3.681548 4.122159,-4.902114 3.969431,-2.934728 4.218433,-3.867349 2.530233,-9.476815 -1.522672,-5.059454 -1.781675,-12.685593 -0.538564,-15.857562 0.413722,-1.055667 0.292868,-3.926773 -0.268564,-6.380235 -0.936374,-4.091961 -0.829843,-4.615455 1.288278,-6.330605 2.928785,-2.371586 3.612186,-2.345075 6.197683,0.240422 1.70713,1.70713 1.991382,2.853166 1.488183,6 -0.378444,2.366656 -0.225803,3.889812 0.389811,3.889812 0.5565,0 1.011818,0.435877 1.011818,0.968615 0,0.532739 -0.723073,0.691146 -1.606828,0.352018 -1.217168,-0.467071 -1.469384,-1.463565 -1.040056,-4.109203 0.311724,-1.920933 0.118964,-4.329341 -0.428356,-5.352017 -1.308811,-2.445536 -5.605774,-2.43981 -6.382839,0.0085 -0.759119,2.391774 1.018764,7.127399 2.683328,7.147395 0.956429,0.01149 0.978232,0.203856 0.08731,0.770352 -1.688094,1.07339 -3.312559,5.782759 -3.312559,9.603215 0,1.792271 1.125,7.017277 2.5,11.611125 1.375,4.593848 2.432413,10.410649 2.349806,12.926225 l -0.150193,4.573775 -0.599807,-4.5 c -0.422811,-3.172107 -0.813099,-3.98037 -1.322618,-2.739062 -0.784076,1.910188 0.03376,7.504188 1.202726,8.226648 0.396874,0.245282 2.226177,-0.664082 4.065118,-2.020809 3.578415,-2.640072 5.464583,-3.069253 6.453886,-1.468528 0.603756,0.976898 -3.284362,6.414717 -8.733184,12.213999 l -2.734265,2.91013 2.438811,2.438811 c 1.776672,1.776672 3.530896,2.438811 6.461212,2.438811 5.507031,0 7.26712,-2.86262 8.014578,-13.034959 0.315994,-4.300438 0.894103,-8.138547 1.284687,-8.529131 0.775941,-0.775941 -2.096072,-5.350595 -6.085048,-9.692503 -2.014318,-2.192537 -2.278945,-3.010171 -1.29326,-3.995856 0.985685,-0.985685 2.053361,-0.770729 5.217837,1.050511 4.546888,2.616857 5.971947,2.224033 5.830034,-1.607079 l -0.09968,-2.690983 -0.774038,2.5 c -0.534292,1.725665 -0.756679,0.486729 -0.717993,-4 0.03083,-3.575 -0.02117,-7.4 -0.115548,-8.5 -0.303924,-3.542382 0.211391,-6.5 1.132516,-6.5 0.493352,0 0.593059,1.620171 0.221569,3.60038 -0.675972,3.603244 1.262896,7.39962 3.779101,7.39962 0.558949,0 1.821058,0.728322 2.804686,1.618493 1.674917,1.515779 1.897921,1.388854 3.513953,-2 2.848943,-5.974297 5.043532,-4.281482 3.345021,2.580211 -0.585598,2.365713 -1.436005,8.576296 -1.889795,13.801296 l -0.825073,9.5 -0.121899,-8 c -0.06704,-4.4 0.486995,-10.5875 1.231199,-13.75 0.744203,-3.1625 1.198729,-5.75 1.010059,-5.75 -0.601594,0 -3.81399,6.469407 -3.600001,7.25 0.467998,1.707168 -1.708947,0.59459 -2.265076,-1.157619 -0.333,-1.04919 -1.263325,-2.160067 -2.067388,-2.468615 -1.876615,-0.720125 -1.842022,-0.133488 0.173525,2.942626 0.899502,1.372813 1.382684,2.748799 1.073737,3.057747 -0.308947,0.308947 -1.266704,-0.801561 -2.128347,-2.467796 -2.499482,-4.833466 -3.270015,-4.45325 -2.786685,1.375077 0.37483,4.519951 0.154809,5.550931 -1.304095,6.110765 -0.96525,0.370401 -2.59539,0.152437 -3.622534,-0.484364 -1.027144,-0.636802 -2.747069,-1.703286 -3.822056,-2.369966 -1.074986,-0.66668 -2.203341,-0.963325 -2.507455,-0.659211 -0.560636,0.560636 2.851087,4.769422 9.776309,12.060296 2.097882,2.208651 3.571634,4.258427 3.275004,4.555057 -0.29663,0.296631 -1.411844,-0.53692 -2.478252,-1.852334 -1.066409,-1.315415 -2.213611,-2.118213 -2.549339,-1.783995 -0.335727,0.334217 -0.865102,3.709217 -1.176388,7.5 -0.852097,10.376673 -2.033923,13.347547 -5.962729,14.989107 -1.847115,0.771774 -3.485344,1.341943 -3.640509,1.267043 -0.155166,-0.0749 -1.260019,-0.326664 -2.455231,-0.559475 z m 0.822944,-34.354343 c -0.177446,-4.204253 1.305578,-6.000446 4.800168,-5.813818 2.248861,0.1201 2.292866,0.186236 0.372621,0.560035 -2.819636,0.548875 -4.042269,2.096742 -4.584304,5.803783 -0.418961,2.865324 -0.445379,2.840634 -0.588485,-0.55 z m 9.569467,-16.595166 c -0.382441,-0.618803 -0.189869,-2.575111 0.427938,-4.347352 0.89832,-2.576925 0.845853,-3.397957 -0.261976,-4.099557 -1.043551,-0.660891 -1.069174,-0.881077 -0.103876,-0.892612 0.704761,-0.0084 1.504611,0.566405 1.777442,1.277393 0.713553,1.859488 -1.0085,9.406758 -1.839528,8.062128 z M -54.151992,0.70287 c -0.419395,-0.676134 -0.291727,-2.10905 0.283708,-3.184259 1.419014,-2.651452 1.318842,-5.809746 -0.203756,-6.424127 -0.979059,-0.395059 -0.972257,-0.521498 0.03139,-0.583334 1.946643,-0.119934 2.460725,2.293071 1.510128,7.088267 -0.524667,2.646633 -1.155678,3.854377 -1.621465,3.103453 z m -3.555395,-1.178646 c -1.320276,-0.836143 -1.216235,-2.565394 0.502295,-8.34855 0.351777,-1.183793 -0.234315,-2.077214 -1.797488,-2.740038 l -2.31946,-0.983507 2.5,0.240037 c 2.374205,0.227959 2.5,0.554319 2.5,6.485953 0,3.435253 0,6.240863 0,6.234687 0,-0.0062 -0.623406,-0.406038 -1.385347,-0.888582 z"
       id="path4017"
       inkscape:connector-curvature="0" />
    <path
       style="fill:#546971"
       d="m -64.897726,51.689357 c -1.602925,-1.813533 -1.739721,-2.170185 -0.403751,-1.05265 1.11131,0.929608 3.13631,2.135365 4.5,2.67946 2.216886,0.884509 2.25964,0.995975 0.403751,1.05265 -1.141627,0.03486 -3.166627,-1.170895 -4.5,-2.67946 z m 10.055978,1.458397 c 1.364161,-0.690232 3.045027,-2.371098 3.735259,-3.735259 0.892159,-1.763249 1.259227,-1.985635 1.269707,-0.769247 0.01801,2.090435 -3.781958,5.794435 -5.923819,5.774213 -0.940601,-0.0089 -0.575258,-0.513724 0.918853,-1.269707 z m -14.916906,-0.964406 c -0.03486,-0.96187 1.736614,-3.603632 3.936614,-5.870582 2.2,-2.26695 4,-4.542832 4,-5.057516 0,-0.514684 1.392472,-2.207615 3.094382,-3.76207 3.986863,-3.641438 2.327038,-4.711378 -2.363908,-1.523798 -3.423924,2.326617 -6.730474,2.441275 -6.730474,0.233387 0,-0.57973 0.651689,-0.474601 1.518758,0.245001 1.233274,1.023527 1.844182,0.976712 3.25,-0.249056 2.984868,-2.60258 5.767266,-3.671298 7.22026,-2.773298 1.445296,0.893242 -1.306989,4.832416 -8.750357,12.523843 -1.793736,1.853515 -3.677713,4.407934 -4.186614,5.676486 -0.693102,1.727716 -0.941179,1.867631 -0.988661,0.557603 z m -7.319433,-5.751145 c 0.289701,-3.575 0.690825,-6.6875 0.891388,-6.916667 0.737229,-0.842371 0.197345,9.481807 -0.597013,11.416667 -0.482145,1.174385 -0.603665,-0.68325 -0.294375,-4.5 z m 27.555711,-5 c 0,-3.025 0.187466,-4.2625 0.41659,-2.75 0.229125,1.5125 0.229125,3.9875 0,5.5 -0.229124,1.5125 -0.41659,0.275 -0.41659,-2.75 z m -28.213711,-5.202947 c -0.158675,-3.14376 2.212181,-7.269651 6.275085,-10.92024 l 4.032407,-3.623188 -1.834445,-6.058761 c -1.346918,-4.448567 -1.637798,-7.339222 -1.094512,-10.876813 0.406964,-2.649928 0.728325,-6.246165 0.714136,-7.991638 -0.02428,-2.986427 0.07614,-3.074889 1.702794,-1.5 0.950725,0.920473 1.394491,1.907745 0.986148,2.193939 -1.382337,0.96883 -2.867566,6.090331 -2.867566,9.888197 0,2.078093 0.921287,6.436298 2.047304,9.684901 1.126017,3.248602 2.198917,8.60655 2.384221,11.90655 0.280904,5.002478 0.227585,5.251858 -0.320706,1.5 l -0.657624,-4.5 -0.821758,3.321506 c -0.451967,1.826828 -1.033512,3.109752 -1.292323,2.850942 -0.25881,-0.258811 0.03859,-2.361412 0.660886,-4.672448 1.701482,-6.31882 0.511329,-5.913662 -2.611111,0.888889 -2.954286,6.43621 -4.538984,7.799439 -1.998497,1.719197 0.829155,-1.984447 1.092073,-3.608086 0.584261,-3.608086 -1.012888,0 -3.837952,5.040815 -5.040312,8.993526 -0.461925,1.518556 -0.796313,1.835264 -0.848388,0.803527 z m 31.657024,-4.561513 c -6.589538,-6.551857 -10.927299,-12.128284 -10.266271,-13.197849 0.977405,-1.581475 2.986273,-1.247952 5.796165,0.962309 4.026724,3.167422 5.743966,2.633402 5.627449,-1.75 -0.08265,-3.109164 -0.215423,-3.335884 -0.776977,-1.326705 -0.372514,1.332812 -0.665158,-2.111537 -0.65032,-7.65411 0.01484,-5.542572 0.378285,-9.860463 0.807661,-9.595314 0.429376,0.26515 0.501456,1.970502 0.160178,3.789672 -0.529119,2.820445 -0.225051,3.582173 2.064581,5.172019 4.226571,2.934795 6.497143,5.258157 6.464148,6.614438 -0.01672,0.6875 -0.540766,0.35 -1.164536,-0.75 -1.194055,-2.105679 -3.004523,-3.633865 -3.599831,-3.038557 -0.193983,0.193983 0.361883,1.857015 1.235257,3.695627 0.873375,1.838611 1.019057,2.502076 0.323737,1.474365 -0.69532,-1.02771 -2.023668,-2.82771 -2.951885,-4 -1.622538,-2.049181 -1.665463,-1.910365 -1.112311,3.597114 0.490237,4.881062 0.313478,5.82904 -1.194799,6.40782 -0.973585,0.3736 -2.723045,0.088 -3.887689,-0.634676 -1.164644,-0.722671 -2.884569,-1.789156 -3.822056,-2.369966 -2.875324,-1.781375 -3.169483,0.103831 -0.478401,3.065988 12.129446,13.351255 15.104856,17.17287 7.4259,9.537825 z m 11.585163,-3.73554 c 0.0044,-3.85 0.185183,-5.302463 0.401658,-3.227696 0.216476,2.074768 0.212846,5.224768 -0.0081,7 -0.220878,1.775233 -0.397994,0.0777 -0.393558,-3.772304 z m -25.191958,-7.595012 c -0.162363,-3.093898 2.975893,-6.271374 5.539414,-5.608642 1.540876,0.398353 1.493763,0.489679 -0.303151,0.587653 -2.559261,0.139539 -4.021989,1.752169 -4.640445,5.116001 l -0.459636,2.5 z m 25.948863,-4.41159 c -0.04677,-1.103631 0.333542,-3.466131 0.845149,-5.25 0.511607,-1.783869 0.560391,-3.243398 0.108408,-3.243398 -0.451982,0 -1.151051,1.2375 -1.553487,2.75 -0.402436,1.5125 -0.943526,2.173081 -1.202423,1.467957 -0.631322,-1.719453 2.680572,-6.661168 3.736222,-5.574859 0.457996,0.471296 0.229372,3.331902 -0.508052,6.356902 -0.737424,3.025 -1.379042,4.597029 -1.425817,3.493398 z M -50.740466,3.331426 c -0.04487,-0.330427 0.429293,-2.066251 1.053687,-3.857387 0.911213,-2.613908 0.861874,-3.429749 -0.25,-4.133911 -1.043551,-0.660891 -1.069174,-0.881077 -0.103876,-0.892612 2.082515,-0.02489 2.43485,2.485125 0.856716,6.103184 -0.811224,1.859827 -1.511661,3.111153 -1.556527,2.780726 z M -62.82204,-4.00878 c 0,-1.342541 0.408034,-2.693162 0.906741,-3.00138 0.498708,-0.308218 0.659179,0.386285 0.356602,1.543341 -0.322473,1.233139 0.0265,2.468876 0.843258,2.986067 1.113584,0.705145 1.041973,0.885404 -0.356601,0.897642 -1.192899,0.010438 -1.75,-0.761758 -1.75,-2.42567 z m 9.66238,-0.410235 c 0.434167,-2.316465 0.197299,-3.65224 -0.767136,-4.326131 -1.160971,-0.811217 -1.143382,-0.907001 0.104756,-0.570454 1.872816,0.504985 2.475715,4.106531 1.082919,6.469047 -0.816924,1.3857 -0.909852,1.038229 -0.420539,-1.572462 z m -4.070581,-2.901401 c 0.479798,-2.746269 0.205535,-3.398018 -1.761769,-4.186614 -1.523516,-0.610702 -1.76667,-0.955935 -0.702475,-0.997381 2.824336,-0.109995 4.202837,2.506083 2.978754,5.652992 -1.077749,2.770711 -1.080136,2.768535 -0.51451,-0.468997 z m -13.528413,-1.063122 c -0.09791,-2.032292 1.867805,-5.186013 3.221798,-5.168946 0.940394,0.01185 0.943699,0.187652 0.01463,0.77823 -0.660103,0.419605 -1.644079,1.875214 -2.186614,3.234687 -0.542535,1.359474 -1.014951,1.879686 -1.049814,1.156029 z m 7.140285,-3.229737 c -0.772564,-1.237073 -0.838916,-1.954522 -0.18076,-1.954522 0.571922,0 1.306328,0.694408 1.632012,1.543128 0.900006,2.345377 -0.07147,2.620767 -1.451252,0.411394 z"
       id="path4015"
       inkscape:connector-curvature="0" />
    <path
       style="fill:#3f565f"
       d="m -61.00954,53.749089 c 0.721875,-0.288871 1.584375,-0.253344 1.916667,0.07895 0.332291,0.332292 -0.258334,0.568641 -1.3125,0.52522 -1.164943,-0.04798 -1.4019,-0.284941 -0.604167,-0.604167 z m 5.1875,-0.02632 c 0.825,-0.303347 2.4,-1.280321 3.5,-2.171053 1.982966,-1.605719 1.983775,-1.600349 0.09501,0.630488 -1.047743,1.2375 -2.622743,2.214474 -3.5,2.171053 -1.353785,-0.06701 -1.368154,-0.162361 -0.09501,-0.630488 z m -9.127555,-2.040565 c -1.243871,-1.586056 -1.208501,-1.621426 0.377555,-0.377555 0.9625,0.754844 1.75,1.542344 1.75,1.75 0,0.823034 -0.821186,0.293303 -2.127555,-1.372445 z m -3.872445,-2.627555 c 0,-0.207656 0.7875,-0.995156 1.75,-1.75 1.586056,-1.243871 1.621426,-1.208501 0.377555,0.377555 -1.306369,1.665748 -2.127555,2.195479 -2.127555,1.372445 z m -7.727636,-4.622445 c 0,-2.475 0.195016,-3.4875 0.433369,-2.25 0.238353,1.2375 0.238353,3.2625 0,4.5 -0.238353,1.2375 -0.433369,0.225 -0.433369,-2.25 z m 27.01365,-2.5 c 0.0075,-2.75 0.201713,-3.756313 0.431567,-2.23625 0.229855,1.520062 0.223712,3.770062 -0.01365,5 -0.237362,1.229937 -0.425424,-0.01375 -0.417917,-2.76375 z m -8.286014,-4.877555 c 0,-0.207656 0.7875,-0.995156 1.75,-1.75 1.586056,-1.243871 1.621426,-1.208501 0.377555,0.377555 -1.306369,1.665748 -2.127555,2.195479 -2.127555,1.372445 z m -7.727636,-6.622445 c 0,-2.475 0.195016,-3.4875 0.433369,-2.25 0.238353,1.2375 0.238353,3.2625 0,4.5 -0.238353,1.2375 -0.433369,0.225 -0.433369,-2.25 z m 19.65195,1.25 -2.424314,-2.75 2.75,2.424314 c 2.570289,2.265887 3.208588,3.075686 2.424314,3.075686 -0.179127,0 -1.416627,-1.2375 -2.75,-2.75 z m 11.39576,-4.25 c 0,-3.575 0.181495,-5.0375 0.403322,-3.25 0.221826,1.7875 0.221826,4.7125 0,6.5 -0.221827,1.7875 -0.403322,0.325 -0.403322,-3.25 z m -36.777595,0 c 0.381745,-1.375 1.315856,-3.210433 2.075802,-4.078741 0.759945,-0.868307 1.410243,-2.218307 1.445105,-3 0.03486,-0.781692 0.497715,-0.334816 1.028561,0.993059 0.530846,1.327874 0.762849,2.902874 0.515561,3.5 -0.247287,0.597125 -0.499184,0.185682 -0.55977,-0.914318 -0.08506,-1.544326 -0.689909,-1.088652 -2.654749,2 -1.80742,2.841195 -2.343515,3.275747 -1.85051,1.5 z m -3.542479,0.622445 c 0,-0.207656 0.7875,-0.995156 1.75,-1.75 1.586056,-1.243871 1.621426,-1.208501 0.377555,0.377555 -1.306369,1.665748 -2.127555,2.195479 -2.127555,1.372445 z m 28.25,-6.253187 c 1.926351,-0.567895 2.074486,-2.557248 0.838375,-11.258803 -0.563879,-3.969402 -0.478768,-5.004273 0.323003,-3.927408 0.598742,0.804175 1.988622,2.022932 3.088622,2.708348 1.953603,1.2173 1.949764,1.2357 -0.165497,0.793125 -2.04685,-0.42826 -2.15643,-0.118828 -2,5.647595 0.147089,5.422104 -0.05696,6.125838 -1.834503,6.326865 -1.535156,0.173614 -1.593261,0.106277 -0.25,-0.289722 z m -9.75,-1.369258 c -0.788457,-1.275751 0.259404,-3.004611 1.809017,-2.984687 0.783033,0.01007 0.718934,0.314304 -0.187132,0.888196 -0.757964,0.480086 -1.068906,1.373196 -0.690983,1.984688 0.377922,0.611491 0.462132,1.111803 0.187132,1.111803 -0.275,0 -0.778115,-0.45 -1.118034,-1 z m 9.578947,-3.583333 c 0.04798,-1.164943 0.284941,-1.4019 0.604167,-0.604167 0.288871,0.721875 0.253344,1.584375 -0.07895,1.916667 -0.332292,0.332291 -0.568641,-0.258334 -0.52522,-1.3125 z m 13,-2 c 0.04798,-1.164943 0.284941,-1.4019 0.604167,-0.604167 0.288871,0.721875 0.253344,1.584375 -0.07895,1.916667 -0.332292,0.332291 -0.568641,-0.258334 -0.52522,-1.3125 z m -21.266447,-0.09978 c 0.721875,-0.288871 1.584375,-0.253344 1.916667,0.07895 0.332291,0.332292 -0.258334,0.568641 -1.3125,0.52522 -1.164943,-0.04798 -1.4019,-0.284941 -0.604167,-0.604167 z m 22.266447,-3.900219 c 0.04798,-1.164943 0.284941,-1.4019 0.604167,-0.604167 0.288871,0.721875 0.253344,1.584375 -0.07895,1.916667 -0.332292,0.332291 -0.568641,-0.258334 -0.52522,-1.3125 z M -70.536026,6.932203 c 0.0075,-2.75 0.201713,-3.756313 0.431567,-2.23625 0.229855,1.520062 0.223712,3.770062 -0.01365,5 -0.237362,1.229937 -0.425424,-0.01375 -0.417917,-2.76375 z m 24.278279,-7.206872 c -0.542685,-1.425198 -0.427821,-1.540062 0.559795,-0.559795 0.683418,0.678334 0.990671,1.485241 0.682784,1.793128 -0.307887,0.307888 -0.867048,-0.247112 -1.242579,-1.233333 z M -69.26282,-3.274067 c -0.333463,-0.868993 -0.370705,-1.815579 -0.08276,-2.103525 0.287947,-0.287946 0.523539,-0.031534 0.523539,0.569804 0,0.601339 0.7875,1.252133 1.75,1.446211 1.599935,0.32261 1.607032,0.409234 0.08276,1.010182 -1.051584,0.414589 -1.891127,0.07388 -2.273539,-0.922672 z m 6.44078,-0.29373 c 0,-1.1 0.172516,-2 0.383369,-2 0.210852,0 0.618724,0.9 0.90638,2 0.287656,1.1 0.115141,2 -0.383369,2 -0.498509,0 -0.90638,-0.9 -0.90638,-2 z m 13.731213,0.08016 c -0.434974,-1.663345 -0.304831,-2.053777 0.437237,-1.311709 0.581102,0.581102 0.859794,1.646819 0.619313,2.36826 -0.249648,0.748946 -0.702941,0.295653 -1.05655,-1.056551 z m -3.652266,-2.746827 c -0.04342,-1.191666 -0.641447,-2.39364 -1.328947,-2.671052 -0.979059,-0.395059 -0.972257,-0.521498 0.03139,-0.583334 1.517909,-0.09352 2.621812,2.321006 1.891892,4.138064 -0.28346,0.705644 -0.550909,0.307989 -0.59433,-0.883678 z"
       id="path4013"
       inkscape:connector-curvature="0" />
  </g>
</svg>
