<?xml version="1.0" encoding="UTF-8" standalone="no"?>
<svg
   xmlns:dc="http://purl.org/dc/elements/1.1/"
   xmlns:cc="http://creativecommons.org/ns#"
   xmlns:rdf="http://www.w3.org/1999/02/22-rdf-syntax-ns#"
   xmlns:svg="http://www.w3.org/2000/svg"
   xmlns="http://www.w3.org/2000/svg"
   xmlns:sodipodi="http://sodipodi.sourceforge.net/DTD/sodipodi-0.dtd"
   xmlns:inkscape="http://www.inkscape.org/namespaces/inkscape"
   width="62px"
   height="61px"
   viewBox="0 0 62 61"
   version="1.1"
   id="svg3902"
   sodipodi:docname="Group12.svg"
   inkscape:version="0.92.4 (5da689c313, 2019-01-14)">
  <metadata
     id="metadata3906">
    <rdf:RDF>
      <cc:Work
         rdf:about="">
        <dc:format>image/svg+xml</dc:format>
        <dc:type
           rdf:resource="http://purl.org/dc/dcmitype/StillImage" />
      </cc:Work>
    </rdf:RDF>
  </metadata>
  <sodipodi:namedview
     pagecolor="#ffffff"
     bordercolor="#666666"
     borderopacity="1"
     objecttolerance="10"
     gridtolerance="10"
     guidetolerance="10"
     inkscape:pageopacity="0"
     inkscape:pageshadow="2"
     inkscape:window-width="1366"
     inkscape:window-height="697"
     id="namedview3904"
     showgrid="false"
     inkscape:zoom="3.8688525"
     inkscape:cx="31"
     inkscape:cy="30.5"
     inkscape:window-x="-8"
     inkscape:window-y="-8"
     inkscape:window-maximized="1"
     inkscape:current-layer="svg3902" />
  <!-- Generator: Sketch 55.2 (78181) - https://sketchapp.com -->
  <title
     id="title3881">Group 12</title>
  <desc
     id="desc3883">Created with Sketch.</desc>
  <defs
     id="defs3886">
    <polygon
       id="path-1"
       points="0 59.975625 60 59.975625 60 0 0 0" />
  </defs>
  <g
     id="g3919"
     transform="matrix(0.61822486,0,0,0.61822486,-13.968917,11.497267)"
     style="fill:#000000">
    <path
       style="fill:#000000;fill-opacity:1"
       d="m 60.646056,72.588116 c 0.583172,-4.516387 0.405255,-5.035561 -2.91288,-8.5 -4.463219,-4.66001 -6.620367,-8.933092 -7.407051,-14.672576 -0.719955,-5.252646 -1.622708,-5.680787 -3.322981,-1.575965 -1.06004,2.559163 -0.927923,3.457951 1.016972,6.918424 1.511052,2.688554 1.971474,4.570586 1.421053,5.808731 -0.720014,1.619633 -0.863144,1.545555 -1.236902,-0.640164 C 47.9718,58.56711 47.150974,56.554482 46.380208,55.45406 44.34188,52.543939 44.663679,47.568657 47.089717,44.484449 48.972188,42.091275 49.040201,41.616771 47.718216,40.09959 43.526779,35.289269 41.588631,26.090639 43.173894,18.531813 44.619373,11.639505 49.237659,6.994024 60.275498,1.329504 c 5.061825,-2.597683 10.440819,-5.588033 11.953319,-6.645223 3.020929,-2.111535 3.794999,-1.006051 1,1.428144 -0.9625,0.838252 -6.377182,3.882271 -12.032627,6.764486 -6.456598,3.290511 -11.164164,6.408929 -12.651798,8.380893 -2.609854,3.459543 -4.554975,9.500069 -4.553409,14.140502 l 10e-4,3 1.926905,-2.923029 c 1.860249,-2.821897 5.059929,-5.36462 5.059929,-4.021017 0,0.360434 -1.125,1.992321 -2.5,3.626415 -3.023733,3.593503 -3.238145,8.177941 -0.571652,12.222771 l 1.915169,2.905139 1.624352,-3.905139 c 2.105096,-5.060908 9.642417,-12.72112 16.25541,-16.520445 2.872804,-1.650495 7.260304,-5.329525 9.75,-8.175622 2.69801,-3.084231 4.526721,-4.52222 4.526721,-3.559544 0,2.238373 -7.38018,9.401055 -13.991234,13.578905 -5.753972,3.636217 -12.008766,9.088361 -12.008766,10.467733 0,0.442108 1.604584,0.803833 3.565741,0.803833 4.014598,0 7.434259,1.488142 7.434259,3.235184 0,0.866875 -0.306941,0.857875 -1.2,-0.03518 -0.66,-0.66 -2.82,-1.2 -4.8,-1.2 -1.98,0 -4.127364,-0.527364 -4.771921,-1.171921 -0.895894,-0.895894 -1.644428,-0.130411 -3.178038,3.25 -1.103364,2.432057 -2.016,5.339877 -2.028079,6.461822 -0.04572,4.246828 3.095194,13.747143 5.654166,17.102128 3.976442,5.213383 13.215351,11.520281 15.751874,10.752941 3.799058,-1.14927 12.647856,-8.668252 15.072749,-12.807577 2.821067,-4.815597 4.45575,-13.816331 3.311358,-18.232682 C 89.41721,34.951678 83.731631,27.564582 78.250642,23.959819 72.38414,20.10151 71.970213,18.85133 77.414652,21.434886 c 4.470831,2.121548 12.062069,10.432905 13.722198,15.023912 1.541285,4.262347 2.347596,4.300779 4.823251,0.229892 3.21284,-5.283093 3.519437,-8.621844 1.093108,-11.90363 -2.386755,-3.228259 -1.762015,-3.800541 1.24095,-1.13675 1.943821,1.724276 1.962901,1.669154 1.29797,-3.75 C 98.176251,8.359 88.132184,-5.878461 76.712824,-12.533095 c -5.610666,-3.269617 -7.249779,-3.034207 -14.099654,2.024999 -4.510418,3.331322 -4.825289,3.842377 -4.31287,7.000047 0.561931,3.462774 -0.608063,4.707886 -1.714494,1.824572 -1.833335,-4.777595 0.494724,-7.978641 9.28039,-12.7604 4.663496,-2.538193 5.239552,-2.630779 8.311699,-1.335888 5.051694,2.129258 13.321829,9.106851 18.322517,15.458884 10.428758,13.246934 11.662468,29.064799 3.156357,40.468799 -1.486819,1.993354 -2.688162,5.341225 -3.106378,8.656773 -0.808465,6.409378 -2.610735,10.217895 -7.32216,15.473029 -3.095997,3.453282 -3.41816,4.33203 -2.932922,8 0.496561,3.75356 0.417671,3.94769 -0.885688,2.17946 -0.786942,-1.06762 -1.430804,-2.78778 -1.430804,-3.82258 0,-1.793575 -0.123065,-1.784648 -2.634859,0.19113 -1.449172,1.13992 -4.088486,2.07258 -5.865141,2.07258 -1.776655,0 -4.415969,-0.93266 -5.865141,-2.07258 l -2.634859,-2.07258 v 2.38145 c 0,1.3098 -0.664621,3.25496 -1.476935,4.32258 -1.347478,1.77099 -1.422493,1.51951 -0.855826,-2.86906 z M 68.2083,63.674817 c -0.885852,-1.067387 -0.236843,-1.320837 3.331636,-1.301066 2.493268,0.01381 4.29031,0.461969 4.10833,1.024555 -0.501337,1.549861 -6.207184,1.761922 -7.439966,0.276511 z m -0.09363,-2.812054 c -1.954472,-0.813867 -2.149861,-1.242653 -1.127553,-2.474458 1.684807,-2.030068 8.862395,-1.990537 9.646623,0.05313 0.325685,0.848721 0.391249,1.744033 0.145699,1.989583 -1.063409,1.063409 -6.497596,1.334182 -8.664767,0.431746 z m 6.864147,-1.350958 c 0,-0.212575 -1.35,-0.584638 -3,-0.826807 -1.65,-0.242168 -3,-0.06824 -3,0.386501 0,0.454744 1.35,0.826807 3,0.826807 1.65,0 3,-0.173925 3,-0.386501 z m -5.25,-6.693598 c -0.9625,-0.560605 -1.75,-1.450734 -1.75,-1.978065 0,-0.528491 0.861138,-0.420994 1.918799,0.239526 1.51076,0.943485 2.255046,0.919249 3.5,-0.113971 1.836452,-1.52412 2.161328,-0.04752 0.381201,1.732609 -1.432902,1.432902 -1.778165,1.443124 -4.05,0.119901 z m -11.75,-9.525212 c 0,-0.767079 -0.675,-1.394689 -1.5,-1.394689 -0.825,0 -1.5,-0.502484 -1.5,-1.116631 0,-0.720802 0.797593,-0.842084 2.25,-0.342137 1.2375,0.425972 3.9375,0.79403 6,0.817908 2.0625,0.02388 3.75,0.402839 3.75,0.842137 0,0.439297 -0.3375,0.809458 -0.75,0.82258 -0.4125,0.01312 -2.4375,0.415731 -4.5,0.894689 -2.95708,0.686699 -3.75,0.575932 -3.75,-0.523857 z m 22.517274,0.381161 c -5.247334,-1.108436 -7.431858,-3.191271 -2.372571,-2.262129 2.188726,0.401962 4.528609,0.196301 5.857359,-0.514825 1.600173,-0.856386 2.51511,-0.881724 3.305297,-0.09154 0.790188,0.790191 0.642362,1.092644 -0.534035,1.092644 -0.894672,0 -1.772172,0.588859 -1.95,1.308576 -0.243473,0.985398 -1.306937,1.1008 -4.30605,0.467274 z m -6.517274,-7.705482 c 0,-0.55 0.870416,-1.465833 1.934259,-2.035184 2.47362,-1.323842 9.065741,-1.349426 9.065741,-0.03518 0,0.55 -1.604584,1 -3.565741,1 -1.961158,0 -4.436158,0.465833 -5.5,1.035184 -1.26605,0.677569 -1.934259,0.689724 -1.934259,0.03518 z M 63.004602,10.148306 c 0.01418,-0.4125 2.260419,-2.265795 4.991636,-4.118433 2.731218,-1.852638 5.955557,-4.969811 7.165198,-6.927051 1.209641,-1.95724 2.373718,-3.035505 2.586838,-2.396144 0.614824,1.844472 -3.375996,6.732464 -8.66904,10.617915 -4.9368,3.623944 -6.12107,4.174437 -6.074632,2.823713 z"
       id="path3929"
       inkscape:connector-curvature="0" />
    <path
       style="fill:#000000;fill-opacity:1"
       d="m 60.600243,74.898306 c 1.293658,-4.46099 0.450828,-7.197952 -3.55474,-11.54348 C 53.154716,59.13382 50.016549,51.448347 49.945548,45.966805 l -0.03327,-2.568499 -1.96673,2.360784 c -2.501547,3.002756 -2.470165,4.412124 0.2181,9.794854 1.683773,3.371429 1.913108,4.646423 1,5.559531 -0.913108,0.913108 -1.192125,0.622961 -1.216634,-1.265169 -0.01749,-1.3475 -0.692492,-3.323508 -1.5,-4.39113 -2.10636,-2.784856 -1.809362,-7.855432 0.642703,-10.972727 1.996623,-2.538295 2.018544,-2.785628 0.404919,-4.568663 -4.649214,-5.137324 -6.030274,-19.12858 -2.559669,-25.931527 2.608472,-5.113028 6.642197,-8.347067 15.868699,-12.722733 4.221333,-2.001966 9.137651,-4.725577 10.925151,-6.05247 1.7875,-1.326893 3.25,-1.970274 3.25,-1.429735 0,1.476214 -4.519816,4.357515 -14.229989,9.071361 C 48.175669,8.954377 43.932053,14.675567 44.024432,25.398306 l 0.03446,4 1.619149,-3 c 1.709788,-3.167939 4.457575,-5.676534 5.297631,-4.836478 0.275,0.275 -0.213288,1.025708 -1.085084,1.668239 -4.166197,3.070569 -5.059296,9.407556 -1.983423,14.073379 l 1.915169,2.905139 1.501984,-3.594752 c 2.119542,-5.072781 8.937699,-12.135287 15.654499,-16.215527 3.148468,-1.912593 7.595745,-5.507517 9.882838,-7.988721 4.708518,-5.108139 6.179203,-5.826235 3.607156,-1.761279 -2.184484,3.452438 -4.336635,5.284988 -12.53173,10.67073 -8.329074,5.473792 -14.333905,12.277628 -15.959251,18.082796 -1.662841,5.939084 0.163208,15.039877 4.111263,20.490008 3.09347,4.270412 12.751547,12.008646 14.980593,12.002726 3.75704,-0.01 16.114622,-10.800928 18.008219,-15.725246 0.586062,-1.524057 1.469766,-5.224688 1.963789,-8.223623 0.795209,-4.827273 0.607529,-6.088816 -1.636469,-11 -2.974395,-6.509723 -7.40816,-11.440366 -12.773313,-14.204781 -2.115798,-1.090173 -3.621906,-2.207133 -3.346906,-2.482133 1.018141,-1.01814 8.443203,3.619728 11.873106,7.416221 1.948578,2.156842 4.370304,5.796956 5.381613,8.089141 1.01131,2.292186 2.311323,4.0126 2.888919,3.823143 1.544827,-0.506718 5.51463,-7.858361 5.533723,-10.247852 0.009,-1.132379 -0.644238,-2.932379 -1.451747,-4 -2.143608,-2.834104 -1.85244,-4.041278 0.468197,-1.94113 1.960244,1.773997 2,1.746633 2,-1.376558 0,-9.58498 -7.603195,-22.475021 -18.418922,-31.226433 -7.648986,-6.189083 -10.360687,-6.80225 -15.851616,-3.584351 -6.290555,3.686511 -8.104946,6.059923 -7.38489,9.660204 0.332986,1.664926 0.215462,3.027138 -0.261164,3.027138 -1.215696,0 -2.284266,-4.791793 -1.570247,-7.041466 0.873933,-2.753518 11.32967,-8.958534 15.095543,-8.958534 3.897682,0 13.084255,6.503109 19.197728,13.589933 6.77956,7.858963 9.496191,14.3449 9.995871,23.865069 0.44477,8.474006 -0.64571,12.114803 -5.844876,19.514317 -0.977981,1.391874 -2.086311,4.780681 -2.462955,7.530681 -0.933427,6.81526 -2.632713,10.540375 -7.026993,15.404316 -3.322867,3.678017 -3.668913,4.557216 -3.192296,8.110664 0.303671,2.26403 0.143724,3.74392 -0.370309,3.42623 -0.497681,-0.30758 -0.904874,-1.88269 -0.904874,-3.50023 0,-3.441903 -0.617149,-3.587084 -4,-0.94098 -3.263138,2.55246 -8.06694,2.52179 -11.365141,-0.0726 l -2.634859,-2.07256 v 2.38145 c 0,1.3098 -0.698301,3.25496 -1.551779,4.32258 -1.489182,1.86283 -1.522534,1.84028 -0.826795,-0.55887 z M 68.16592,63.623751 c -0.830437,-1.000614 -0.105183,-1.269277 3.374369,-1.25 4.514351,0.02501 5.705343,0.824455 2.856741,1.917566 -2.5448,0.976531 -5.09322,0.703508 -6.23111,-0.667566 z m -1.51176,-3.383436 c -1.221229,-1.221229 1.548923,-3.342009 4.365314,-3.342009 3.81058,0 5.959343,0.940003 5.959343,2.606989 0,0.998542 -1.36869,1.393011 -4.833333,1.393011 -2.658334,0 -5.129429,-0.296096 -5.491324,-0.657991 z m 7.992924,-1.007076 c -1.081185,-1.081184 -5.588208,-1.273488 -6.211471,-0.265028 -0.316156,0.511552 1.101728,0.930095 3.150854,0.930095 2.049126,0 3.426403,-0.29928 3.060617,-0.665067 z m -6.04466,-7.134933 c -0.271935,-0.44 1.022442,-0.8 2.876393,-0.8 1.853951,0 3.148328,0.36 2.876393,0.8 -0.271935,0.44 -1.566312,0.8 -2.876393,0.8 -1.310081,0 -2.604458,-0.36 -2.876393,-0.8 z M 57.978817,43.014937 c 0,-0.614147 -0.765,-1.116631 -1.7,-1.116631 -1.229424,0 -1.397547,-0.302453 -0.607359,-1.092641 0.790187,-0.790187 1.709794,-0.76235 3.322168,0.100567 1.22624,0.656263 3.524552,0.934202 5.107359,0.61764 1.596244,-0.319248 2.877832,-0.141368 2.877832,0.399434 0,0.53625 -1.0125,0.981145 -2.25,0.988655 -1.2375,0.0075 -3.2625,0.284994 -4.5,0.616631 -1.350005,0.361787 -2.25,0.156327 -2.25,-0.513655 z m 21.25,0.159973 c -1.7875,-0.221826 -3.25,-0.81356 -3.25,-1.314962 0,-0.501403 1.295024,-0.652637 2.877832,-0.336076 1.582807,0.316562 3.881119,0.03862 5.107359,-0.61764 1.612374,-0.862917 2.531981,-0.890754 3.322168,-0.100567 0.790188,0.790188 0.622065,1.092641 -0.607359,1.092641 -0.935,0 -1.7,0.45 -1.7,1 0,0.55 -0.5625,0.927983 -1.25,0.839963 -0.6875,-0.08802 -2.7125,-0.341532 -4.5,-0.563359 z m -15.25,-7.966913 c -1.375,-0.745133 -3.5125,-1.182043 -4.75,-0.970911 -1.2375,0.211132 -2.25,-0.0037 -2.25,-0.477452 0,-1.401505 6.45337,-0.981519 8.557298,0.556911 2.641223,1.931309 1.532609,2.565919 -1.557298,0.891452 z m 10,0.788003 c 0,-1.461511 4.259936,-3.097694 8.0651,-3.097694 4.472981,0 3.488253,1.478686 -1.100066,1.651879 -2.213008,0.08353 -4.685462,0.701134 -5.494342,1.372445 -1.063626,0.882731 -1.470692,0.903039 -1.470692,0.07337 z M 62.980605,10.263316 c 9.84e-4,-0.475756 2.065194,-2.168637 4.587135,-3.761959 2.52194,-1.593323 5.558635,-4.400252 6.748212,-6.237622 1.189576,-1.837369 2.511921,-3.346242 2.938545,-3.35305 1.596581,-0.02548 -2.395887,5.975254 -5.524629,8.303593 -5.441053,4.049107 -8.751145,5.9593 -8.749263,5.049038 z"
       id="path3927"
       inkscape:connector-curvature="0" />
    <path
       style="fill:#000000;fill-opacity:1"
       d="M 60.635684,74.898306 C 61.963935,70.412776 61.25563,68.019682 57.254309,63.473942 53.340685,59.02783 50.009238,51.078192 49.945548,46.033471 l -0.03327,-2.635165 -1.96673,2.360784 c -2.544344,3.054128 -2.481204,5.349064 0.279126,10.145241 1.909,3.316962 2.036915,4.096627 0.852821,5.198118 -1.155517,1.074908 -1.296583,1.019737 -0.827345,-0.323574 0.311129,-0.890687 -0.297641,-3.039063 -1.352822,-4.77417 -2.479493,-4.0772 -2.436157,-8.178601 0.120763,-11.429198 l 2.039274,-2.592517 -2.78039,-4.292342 C 43.783526,33.841284 43.495668,32.504561 43.487701,24.73816 43.475171,12.518439 45.676658,9.510325 60.29739,1.769443 c 5.927842,-3.138469 11.442063,-6.25752 12.253826,-6.931223 0.811763,-0.673704 1.700933,-0.999915 1.975933,-0.724915 0.839889,0.839889 -1.746692,2.496362 -11.156889,7.144986 -4.95986,2.450164 -10.516003,5.71539 -12.346984,7.256059 -4.344214,3.655415 -6.996062,9.656737 -7.018759,15.883956 l -0.01822,5 1.834203,-3 c 1.793011,-2.932635 5.158317,-6.308148 5.158317,-5.173967 0,0.314008 -1.125,1.784818 -2.5,3.268468 -3.103017,3.34821 -3.382361,9.699705 -0.586573,13.336978 l 1.868956,2.43148 2.522411,-4.93148 c 2.935961,-5.739999 7.970302,-10.764294 15.695206,-15.663889 6.123799,-3.884078 10.135907,-7.401124 11.766254,-10.314392 0.596057,-1.065096 1.383288,-1.63699 1.749401,-1.270876 1.141998,1.141997 -7.515753,9.672931 -13.515655,13.317678 -10.245927,6.224071 -17,15.277064 -17,22.78638 0,5.175307 2.763838,13.279507 5.731681,16.806588 4.194803,4.98524 12.212001,10.907032 14.766448,10.907032 2.909384,0 12.151694,-7.444193 15.827238,-12.748005 1.762278,-2.542968 3.167069,-6.369918 3.849078,-10.48571 1.016421,-6.133906 0.929628,-6.770223 -1.619564,-11.873761 -3.252616,-6.511808 -7.72564,-11.382886 -12.901786,-14.049914 -2.115798,-1.090173 -3.598626,-2.230413 -3.295173,-2.533866 1.011627,-1.011627 9.453349,4.638943 12.558787,8.406377 1.685173,2.044407 3.855802,5.643166 4.823621,7.997243 0.967818,2.354076 1.98467,4.276256 2.25967,4.271509 0.275,-0.0047 1.526873,-1.593675 2.78194,-3.530952 3.199144,-4.938086 3.811423,-8.89839 1.840724,-11.906056 -2.248222,-3.43122 -1.975658,-4.550455 0.410605,-1.686081 l 1.966731,2.360784 v -3.706877 c 0,-10.394266 -7.11592,-22.615487 -18.5,-31.772784 -7.619037,-6.128715 -9.711972,-6.656521 -15.087473,-3.804824 -6.793968,3.604191 -8.661051,5.80841 -8.2079,9.68998 0.464252,3.976653 -0.699796,4.52048 -1.641848,0.767048 -0.417212,-1.662307 -0.08101,-3.480439 0.928489,-5.021129 2.041651,-3.115952 10.340918,-8.32944 13.29857,-8.353982 3.891788,-0.03229 9.728546,3.638499 16.686064,10.494021 8.464288,8.340203 12.794771,16.980877 13.354111,26.645669 0.4365,7.542269 -0.66484,11.708416 -4.753875,17.982964 -1.56215,2.39709 -3.148496,6.513059 -3.525214,9.146597 -0.948772,6.63262 -2.98048,11.074574 -7.203342,15.748777 -3.199797,3.541793 -3.546619,4.442371 -3.072399,7.977952 0.303671,2.26403 0.143724,3.74392 -0.370309,3.42623 -0.497681,-0.30758 -0.904874,-2.12391 -0.904874,-4.03628 v -3.477032 l -3.732135,2.536052 c -4.490488,3.05137 -6.728212,3.16246 -11.017865,0.54701 -2.993214,-1.824998 -3.2528,-1.844455 -3.285435,-0.24626 -0.01949,0.95441 -0.713262,2.8603 -1.541716,4.2353 l -1.506279,2.5 z m 8.593133,-10.662281 c -2.453876,-0.99016 -1.185573,-1.837719 2.75,-1.837719 4.127641,0 5.188068,0.830118 2.418213,1.893011 -1.800141,0.690779 -3.360629,0.674084 -5.168213,-0.05529 z m -2.574657,-3.99571 c -1.304001,-1.304 1.638149,-3.342009 4.824657,-3.342009 3.186508,0 6.128658,2.038009 4.824657,3.342009 -0.361895,0.361895 -2.53299,0.657991 -4.824657,0.657991 -2.291667,0 -4.462762,-0.296096 -4.824657,-0.657991 z m 8.324657,-1.275126 c 0,-1.155754 -5.874559,-1.078868 -6.594679,0.08631 -0.287845,0.465744 1.078203,0.846807 3.035662,0.846807 1.957459,0 3.559017,-0.419903 3.559017,-0.933117 z m -6.376393,-6.866883 c -0.271935,-0.44 1.022442,-0.8 2.876393,-0.8 1.853951,0 3.148328,0.36 2.876393,0.8 -0.271935,0.44 -1.566312,0.8 -2.876393,0.8 -1.310081,0 -2.604458,-0.36 -2.876393,-0.8 z M 58.373789,43.068245 c 0.470554,-0.761372 -0.06583,-1.169939 -1.535955,-1.169939 -1.6337,0 -1.956564,-0.302453 -1.166376,-1.092641 0.790187,-0.790187 1.707766,-0.763435 3.31484,0.09664 1.22221,0.654106 3.520521,0.998732 5.107359,0.765833 1.586838,-0.232893 2.88516,-0.05138 2.88516,0.403361 0,0.454744 -1.313196,0.826807 -2.918213,0.826807 -1.605016,0 -3.703837,0.301472 -4.664044,0.669939 -1.190287,0.456755 -1.515745,0.297649 -1.022771,-0.5 z m 21.355028,0.101593 c -2.0625,-0.215745 -3.75,-0.737161 -3.75,-1.158704 0,-0.421543 1.298322,-0.575889 2.88516,-0.342991 1.586838,0.232899 3.885149,-0.111727 5.107359,-0.765833 1.607074,-0.86008 2.524653,-0.886832 3.31484,-0.09664 0.790188,0.790183 0.467324,1.092636 -1.166376,1.092636 -1.251367,0 -1.983339,0.446057 -1.640983,1 0.339919,0.55 0.253976,0.924354 -0.190983,0.831897 -0.444959,-0.09246 -2.496517,-0.344621 -4.559017,-0.560365 z M 63.639728,34.768351 c -1.011499,-0.588026 -2.923999,-0.861745 -4.25,-0.608264 -1.326001,0.253482 -2.410911,0.07328 -2.410911,-0.400453 0,-1.427321 6.476578,-0.968098 8.55887,0.606869 2.238687,1.693257 0.83478,1.990501 -1.897959,0.401848 z m 12.339089,-0.292894 c 2.587465,-1.558979 9,-2.148327 9,-0.827151 0,0.4125 -1.4625,0.760331 -3.25,0.772958 -1.7875,0.01263 -4.375,0.368899 -5.75,0.791715 l -2.5,0.768757 z m -9.5,-26.824269 c 4.183524,-3.045268 9.078182,-7.965402 9.702381,-9.752882 0.288095,-0.825 0.805141,-1.242775 1.148991,-0.92839 1.554311,1.421123 -9.889292,12.880324 -12.851372,12.86889 -0.55,-0.0021 0.35,-0.986551 2,-2.187618 z"
       id="path3925"
       inkscape:connector-curvature="0" />
    <path
       style="fill:#000000;fill-opacity:1"
       d="m 60.54311,74.605176 c 0.375531,-0.98622 0.934692,-1.54122 1.242579,-1.23333 0.307887,0.30789 6.34e-4,1.11479 -0.682784,1.79313 -0.987616,0.98026 -1.10248,0.8654 -0.559795,-0.5598 z m 21.059246,-0.24553 c -0.964979,-2.51469 -0.680311,-3.16355 0.498534,-1.13634 0.58369,1.00375 0.850598,2.03566 0.593129,2.29313 -0.257468,0.25747 -0.748717,-0.26309 -1.091663,-1.15679 z m -15.770705,-3.91537 c -1.986289,-1.349722 -3.890749,-2.174722 -4.232134,-1.833337 -0.341385,0.341385 -0.6207,0.127741 -0.6207,-0.474764 0,-0.602506 -1.626204,-2.815006 -3.613786,-4.916667 -3.525768,-3.728131 -5.924656,-8.116093 -4.96286,-9.077889 0.263621,-0.263621 0.77657,0.705068 1.139888,2.152642 0.783345,3.121092 12.736838,14.390275 16.181046,15.254715 3.207965,0.80515 5.752958,-0.48376 11.92719,-6.040524 8.985872,-8.087213 12.379056,-19.186147 8.527537,-27.893145 -2.520085,-5.697069 -9.147993,-12.990376 -13.819922,-15.207351 -1.947834,-0.924308 -3.300299,-1.921778 -3.005477,-2.216599 0.998774,-0.998775 9.461437,4.683487 12.543093,8.42207 1.685173,2.044407 3.855802,5.643166 4.823621,7.997243 0.967818,2.354076 1.98467,4.278751 2.25967,4.277055 0.275,-0.0017 1.625,-1.654326 3,-3.67251 1.800007,-2.641996 2.818421,-6.070048 3.637229,-12.243167 l 1.137224,-8.573742 0.0908,6.5 c 0.0922,6.602332 -2.090062,13.380943 -5.532445,17.184735 -0.856467,0.946384 -2.152614,4.561117 -2.880326,8.032738 -1.845356,8.803441 -2.709352,10.728377 -6.83497,15.227944 -1.989637,2.16998 -3.624413,4.64498 -3.632835,5.5 -0.01133,1.149973 -0.221619,1.229683 -0.807984,0.306253 -0.59473,-0.936603 -1.638281,-0.624459 -4.178967,1.25 -4.247336,3.13359 -6.584932,3.14288 -11.144902,0.0443 z m 2.147166,-7.604987 c 0,-0.582459 0.45,-0.780902 1,-0.440983 0.55,0.339919 1,0.816476 1,1.059017 0,0.242541 -0.45,0.440983 -1,0.440983 -0.55,0 -1,-0.476558 -1,-1.059017 z m 5,0.666006 c 0,-0.216156 0.675,-0.652033 1.5,-0.968615 0.825,-0.316583 1.5,-0.139728 1.5,0.393011 0,0.532738 -0.675,0.968615 -1.5,0.968615 -0.825,0 -1.5,-0.176855 -1.5,-0.393011 z m -25,-2.547972 c 0,-0.517541 0.444846,-1.215913 0.988546,-1.551938 0.56686,-0.350339 0.734507,0.05106 0.393011,0.940983 -0.664791,1.732417 -1.381557,2.049387 -1.381557,0.610955 z M 66.65416,60.240315 c -1.304001,-1.304 1.638149,-3.342009 4.824657,-3.342009 3.186508,0 6.128658,2.038009 4.824657,3.342009 -0.361895,0.361895 -2.53299,0.657991 -4.824657,0.657991 -2.291667,0 -4.462762,-0.296096 -4.824657,-0.657991 z m 8.324657,-1.342009 c 0,-0.55 -1.323442,-1 -2.940983,-1 -1.617541,0 -3.219098,0.45 -3.559017,1 -0.367803,0.595118 0.822949,1 2.940983,1 1.957459,0 3.559017,-0.45 3.559017,-1 z M 46.552553,55.040896 C 44.48389,51.040543 44.571579,49.078512 46.996809,45.100698 L 49.007324,41.80309 46.354197,37.27587 C 42.517202,30.728534 41.897152,20.764175 44.936092,14.486563 46.154001,11.970699 48.57435,8.943296 50.314645,7.759 l 3.164172,-2.153264 -3.190209,3.035303 c -4.273422,4.06592 -6.317974,9.324925 -6.270649,16.129391 0.03843,5.525662 0.06319,5.57339 1.363373,2.627876 0.728327,-1.65 2.368856,-3.9 3.64562,-5 2.07657,-1.789077 2.038248,-1.620929 -0.363373,1.594391 -3.101747,4.152656 -3.596869,10.158381 -1.128058,13.683103 2.127062,3.036806 2.828235,2.812334 4.348596,-1.392151 1.828124,-5.055587 7.138329,-10.602057 14.757254,-15.413843 3.573785,-2.25705 8.562222,-6.211476 11.085416,-8.787613 2.957354,-3.019408 3.852013,-3.617799 2.517595,-1.683887 -2.760906,4.001255 -5.758503,6.659713 -11.749129,10.419871 -7.135275,4.478624 -13.004644,10.391459 -15.564829,15.680096 -1.810097,3.73916 -2.12223,5.712855 -1.698573,10.7405 l 0.519035,6.159533 -1.181468,-4.961103 -1.181469,-4.961103 -1.704566,2.433609 c -2.1333,3.045713 -2.166271,5.884408 -0.102567,8.830758 0.881099,1.257946 1.364281,2.524893 1.073736,2.815437 -0.290544,0.290545 -1.236444,-0.841209 -2.101999,-2.515008 z m 22.035703,-2.965514 c -0.279728,-0.452609 0.999017,-0.790109 2.841655,-0.75 1.842638,0.04011 3.14339,0.410424 2.890561,0.822924 -0.621054,1.013273 -5.096094,0.956342 -5.732216,-0.07292 z M 58.577765,42.738204 c 0.236893,-0.3833 -0.58846,-0.870396 -1.834117,-1.082436 -1.245657,-0.21204 0.499812,-0.356712 3.878821,-0.321494 6.750755,0.07036 7.643435,1.135852 1.446733,1.726803 -2.157183,0.20572 -3.728329,0.06043 -3.491437,-0.322873 z m 21.901052,0.433323 c -5.452976,-0.77635 -4.468712,-1.77218 1.815915,-1.837253 3.401247,-0.03522 5.164911,0.109454 3.919254,0.321494 -1.245657,0.21204 -2.006599,0.803354 -1.690983,1.314032 0.315616,0.510679 0.20979,0.861082 -0.235169,0.778674 -0.444959,-0.08241 -2.159017,-0.342034 -3.809017,-0.576947 z m -15.82229,-7.928844 c -0.360593,-0.360593 -2.348093,-1.0207 -4.416667,-1.466904 l -3.761043,-0.81128 4.371084,0.387988 c 2.404097,0.213393 4.856597,0.8735 5.45,1.466903 0.713072,0.713072 0.728528,1.078916 0.04558,1.078916 -0.568334,0 -1.328364,-0.29503 -1.688957,-0.655623 z M 75.71215,34.774218 c 0.678334,-0.683418 1.485241,-0.990671 1.793128,-0.682784 0.307888,0.307887 -0.247112,0.867048 -1.233333,1.242579 -1.425198,0.542685 -1.540062,0.427821 -0.559795,-0.559795 z m 4.535699,-1.568903 c 0.972967,-0.253543 2.322967,-0.236869 3,0.03705 0.677032,0.273927 -0.119032,0.481372 -1.769032,0.460992 -1.65,-0.02038 -2.203936,-0.244498 -1.230968,-0.498042 z m 16.730968,-8.807009 c -0.706751,-0.851583 -1.060001,-1.773332 -0.785001,-2.048332 0.275,-0.275 1.07825,0.196749 1.785001,1.048332 0.706751,0.851583 1.060001,1.773332 0.785001,2.048332 -0.275,0.275 -1.07825,-0.196749 -1.785001,-1.048332 z M 98.560088,13.196935 C 96.451346,3.80534 78.512785,-15.101694 71.710997,-15.101694 c -2.975205,0 -12.748363,5.922394 -13.806399,8.36648 -0.828032,1.912771 -0.897057,1.929881 -0.667125,0.165368 0.33621,-2.580102 10.339793,-9.531848 13.716357,-9.531848 3.637646,0 11.327981,5.094791 17.698971,11.725439 5.411748,5.632311 11.914289,17.051172 11.081173,19.459225 -0.250286,0.723435 -0.778535,-0.125281 -1.173886,-1.886035 z M 65.978817,8.152063 c 1.375,-0.902737 4.714835,-3.916633 7.421856,-6.697548 4.487413,-4.609906 4.698091,-4.722482 2.386789,-1.275377 -2.55133,3.805086 -9.449461,9.684691 -11.308645,9.638896 -0.55,-0.01355 0.125,-0.763234 1.5,-1.665971 z m -12,-2.733686 c 0,-0.275 4.015536,-2.516723 8.923413,-4.981607 4.907877,-2.464884 9.209435,-4.9444 9.559017,-5.510035 0.349582,-0.565636 1.171546,-1.014117 1.826587,-0.996626 0.655041,0.017492 0.290983,0.729823 -0.809017,1.582957 -2.519856,1.954342 -19.5,10.579655 -19.5,9.905311 z m 3.078947,-8.103404 c 0.04798,-1.164943 0.284941,-1.4019 0.604167,-0.604167 0.288871,0.721875 0.253344,1.584375 -0.07895,1.916667 -0.332292,0.332291 -0.568641,-0.258334 -0.52522,-1.3125 z"
       id="path3923"
       inkscape:connector-curvature="0" />
    <path
       style="fill:#000000;fill-opacity:1"
       d="m 66.839601,70.838956 -2.360784,-2.059351 2.751852,1.675571 c 1.513518,0.92157 3.8624,1.46328 5.219737,1.20381 1.357338,-0.25947 2.229947,-0.0868 1.939132,0.38378 -0.96196,1.55648 -5.151374,0.8885 -7.549937,-1.20381 z m -5.860784,-3.534737 c 0,-0.693414 -1.0125,-2.083855 -2.25,-3.089869 -1.2375,-1.006015 -2.901356,-2.726176 -3.697459,-3.822581 -0.796102,-1.096404 0.891398,0.239621 3.75,2.968945 2.858603,2.729325 5.197459,5.016825 5.197459,5.083333 0,0.06651 -0.675,0.120926 -1.5,0.120926 -0.825,0 -1.5,-0.567339 -1.5,-1.260754 z m 22.658139,-3.637962 c 2.795001,-2.955301 5.406417,-6.395989 5.803147,-7.645974 0.396729,-1.249984 0.950657,-2.043367 1.230951,-1.763074 0.678478,0.678479 -3.828562,8.641097 -4.891076,8.641097 -0.456807,0 -1.613646,1.2375 -2.570754,2.75 -0.957108,1.5125 -2.395821,2.894276 -3.197142,3.070614 -0.80132,0.176337 0.829873,-2.097361 3.624874,-5.052663 z M 67.645484,60.231639 c -0.366667,-0.366666 -0.659776,-1.154166 -0.651354,-1.75 0.0084,-0.59649 0.391218,-0.490492 0.851786,0.235868 0.53241,0.839665 2.253493,1.187591 4.734687,0.957141 3.790578,-0.352063 3.829185,-0.393641 1.398214,-1.505815 -1.617495,-0.740007 -1.92547,-1.16613 -0.872445,-1.207141 1.868994,-0.07279 4.1793,2.296426 3.197102,3.278623 -0.859993,0.859994 -7.796272,0.853043 -8.65799,-0.0087 z M 46.67625,54.963247 c -0.933588,-1.580439 -1.65137,-3.929094 -1.595072,-5.219233 0.07998,-1.832813 0.270741,-1.636435 0.872441,0.898129 0.423543,1.78411 1.341605,3.932484 2.040139,4.774166 0.698533,0.841681 1.06978,1.730609 0.824993,1.975396 -0.244787,0.244787 -1.208912,-0.848019 -2.142501,-2.428458 z m 4.381514,-3.648274 c 0.04798,-1.164943 0.284941,-1.4019 0.604167,-0.604167 0.288871,0.721875 0.253344,1.584375 -0.07895,1.916667 -0.332292,0.332291 -0.568641,-0.258334 -0.52522,-1.3125 z m 18.921053,1.19991 c 0,-0.210882 1.111382,-0.595877 2.469738,-0.855543 1.358355,-0.259666 2.231798,-0.08713 1.940983,0.383423 -0.51208,0.828563 -4.410721,1.24587 -4.410721,0.47212 z m 21.078947,-2.19991 c 0.04798,-1.164943 0.284941,-1.4019 0.604167,-0.604167 0.288871,0.721875 0.253344,1.584375 -0.07895,1.916667 -0.332292,0.332291 -0.568641,-0.258334 -0.52522,-1.3125 z m -40.942765,-3.821655 -0.136182,-2.904987 -2.25,1.904987 c -2.230323,1.888328 -2.236025,1.887497 -0.652,-0.09501 0.878901,-1.1 1.977066,-2.9 2.440369,-4 0.761839,-1.808805 0.878444,-1.735792 1.219748,0.76375 0.20756,1.520062 0.183176,3.770062 -0.05419,5 -0.347118,1.798664 -0.458215,1.667806 -0.567749,-0.668738 z m 41.979819,-2.263225 c -0.0638,-1.192516 -0.383451,-2.992516 -0.710333,-4 -0.471346,-1.45273 -0.383651,-1.534694 0.423784,-0.396089 0.87981,1.240664 1.266202,1.243005 2.844333,0.01723 1.730327,-1.343986 1.73975,-1.314357 0.179453,0.564302 -0.90572,1.090525 -1.866019,2.88277 -2.133999,3.98277 -0.45516,1.868333 -0.494873,1.857259 -0.603238,-0.168213 z M 58.31215,42.398306 c 0,-0.580752 1.653043,-0.86342 3.833334,-0.655496 2.108333,0.201062 3.833333,0.496035 3.833333,0.655496 0,0.159461 -1.725,0.454434 -3.833333,0.655496 -2.180291,0.207924 -3.833334,-0.07474 -3.833334,-0.655496 z m 22.166667,0.565161 -4,-0.651028 4.083333,-0.467598 c 2.865498,-0.328139 4.083334,-0.09165 4.083334,0.792933 0,0.693293 -0.0375,1.196675 -0.08333,1.118627 -0.04584,-0.07805 -1.883337,-0.434868 -4.083337,-0.792934 z m -34.51096,-6.315161 c -2.112752,-3.465164 -2.641377,-6.2712 -0.98904,-5.25 0.55,0.339919 1,1.391349 1,2.336511 0,0.945162 0.700517,2.718604 1.556704,3.940983 0.856187,1.222378 1.299573,2.222506 0.985302,2.222506 -0.314272,0 -1.463106,-1.4625 -2.552966,-3.25 z m 5.020344,1.695781 c -0.0143,-1.606878 5.402501,-9.674481 8.099712,-12.063434 2.534538,-2.244871 9.090547,-6.452739 7.390904,-4.743731 -0.55,0.55303 -2.935312,2.491462 -5.300694,4.307626 -2.365381,1.816164 -5.623658,5.608736 -7.240616,8.427937 -1.616957,2.819202 -2.944145,4.651422 -2.949306,4.071602 z m 38.13488,-3.195781 c -1.091201,-2.550044 -1.066517,-2.608858 0.339485,-0.80887 0.833938,1.067621 1.516251,2.305121 1.516251,2.75 0,1.519907 -0.678332,0.81036 -1.855736,-1.94113 z m 7.936024,0.75 c 1.457812,-3.061032 1.919712,-3.628339 1.919712,-2.357796 0,0.536545 -0.699825,1.849045 -1.555166,2.916666 -1.466378,1.830306 -1.487191,1.798398 -0.364546,-0.55887 z m -32.080288,-1 c -0.901292,-0.58246 -1.024633,-0.975486 -0.309017,-0.984687 0.655041,-0.0084 1.469098,0.434687 1.809017,0.984687 0.767305,1.241525 0.421123,1.241525 -1.5,0 z M 75.71215,34.774218 c 0.678334,-0.683418 1.485241,-0.990671 1.793128,-0.682784 0.307888,0.307887 -0.247112,0.867048 -1.233333,1.242579 -1.425198,0.542685 -1.540062,0.427821 -0.559795,-0.559795 z M 58.728817,33.236025 c 0.6875,-0.277412 1.8125,-0.277412 2.5,0 0.6875,0.277413 0.125,0.504386 -1.25,0.504386 -1.375,0 -1.9375,-0.226973 -1.25,-0.504386 z m 21.519032,-0.03071 c 0.972967,-0.253543 2.322967,-0.236869 3,0.03705 0.677032,0.273927 -0.119032,0.481372 -1.769032,0.460992 -1.65,-0.02038 -2.203936,-0.244498 -1.230968,-0.498042 z m 2.730968,-6.042384 c -3.094049,-3.186063 -3.632725,-4.066271 -1.72413,-2.817264 2.266063,1.482937 7.672367,7.682259 6.542224,7.501864 -0.174952,-0.02793 -2.343094,-2.135996 -4.818094,-4.6846 z m 16.070285,2.10782 c -0.03866,-1.720156 -0.745285,-3.687756 -1.570285,-4.372445 -0.825,-0.684689 -1.5,-1.739917 -1.5,-2.344951 0,-0.605034 0.7875,0.01257 1.75,1.372445 l 1.75,2.472506 0.592893,-5 0.5929,-5 0.0868,6 c 0.0478,3.3 -0.29993,6.9 -0.772611,8 -0.729174,1.69688 -0.870082,1.525987 -0.929715,-1.127555 z M 43.288686,24.398306 c 0.0056,-3.3 0.192301,-4.529441 0.414862,-2.732091 0.222562,1.79735 0.217969,4.49735 -0.0102,6 -0.228179,1.50265 -0.410275,0.03209 -0.404662,-3.267909 z m 1.690131,4.059017 c 0,-0.792541 0.408034,-1.693162 0.906741,-2.00138 0.498708,-0.308218 0.671224,0.340224 0.383369,1.440983 -0.610613,2.334987 -1.29011,2.630147 -1.29011,0.560397 z m 3.5,-5.559017 c 0.995486,-1.1 2.034975,-2 2.309975,-2 0.275,0 -0.314489,0.9 -1.309975,2 -0.995486,1.1 -2.034975,2 -2.309975,2 -0.275,0 0.314489,-0.9 1.309975,-2 z m 27.5,-1 c -0.901292,-0.58246 -1.024633,-0.975486 -0.309017,-0.984687 0.655041,-0.0084 1.469098,0.434687 1.809017,0.984687 0.767305,1.241525 0.421123,1.241525 -1.5,0 z m -6,-2.617579 c 1.375,-0.973502 4.724611,-4.045297 7.44358,-6.826212 2.7741,-2.837303 4.023837,-3.739665 2.847767,-2.056209 -2.597699,3.718413 -5.879006,6.71571 -9.791347,8.943865 -2.918857,1.662347 -2.932381,1.660685 -0.5,-0.06144 z M 44.983784,14.314973 c 0.0027,-0.504167 1.164921,-2.266667 2.582643,-3.916667 l 2.577676,-3 -2.258805,3.5 c -2.89748,4.489622 -2.907391,4.501293 -2.901514,3.416667 z M 96.555577,8.201486 C 95.483132,5.601896 91.523058,0.190512 87.60375,-4.031057 l -7.028587,-7.570637 6.618051,6.38808 c 6.240771,6.023911 12.329654,15.000866 11.61099,17.118302 -0.178963,0.527286 -1.190845,-1.139154 -2.248627,-3.703202 z m -30.57676,0.079241 c 1.375,-0.973502 4.724611,-4.045297 7.44358,-6.826212 2.7741,-2.837303 4.023837,-3.739665 2.847767,-2.056209 -2.597699,3.718413 -5.879006,6.71571 -9.791347,8.943865 -2.918857,1.662347 -2.932381,1.660685 -0.5,-0.061444 z m -9,-15.376984 c 0,-0.920259 5.27706,-5.144689 8,-6.404218 0.825,-0.381614 0.375,0.114497 -1,1.102469 -1.375,0.987972 -3.5125,2.788357 -4.75,4.000857 -1.2375,1.2125 -2.25,1.797902 -2.25,1.300892 z m 19.5,-6.073271 c -1.65,-1.0569 -4.125,-1.985288 -5.5,-2.063083 -2.258301,-0.127772 -2.289015,-0.182487 -0.317685,-0.565946 2.217678,-0.431378 7.679512,1.855261 8.81329,3.689751 0.809441,1.309704 0.575969,1.227033 -2.995605,-1.060722 z"
       id="path3921"
       inkscape:connector-curvature="0" />
  </g>
</svg>
