<?xml version="1.0" encoding="UTF-8" standalone="no"?>
<!-- Created with Inkscape (http://www.inkscape.org/) -->

<svg
   width="1000"
   height="1000"
   viewBox="0 0 264.58333 264.58333"
   version="1.1"
   id="svg398"
   inkscape:version="1.2 (dc2aedaf03, 2022-05-15)"
   sodipodi:docname="karangtaruna.svg"
   xmlns:inkscape="http://www.inkscape.org/namespaces/inkscape"
   xmlns:sodipodi="http://sodipodi.sourceforge.net/DTD/sodipodi-0.dtd"
   xmlns:xlink="http://www.w3.org/1999/xlink"
   xmlns="http://www.w3.org/2000/svg"
   xmlns:svg="http://www.w3.org/2000/svg">
  <sodipodi:namedview
     id="namedview400"
     pagecolor="#ffffff"
     bordercolor="#000000"
     borderopacity="0.25"
     inkscape:showpageshadow="2"
     inkscape:pageopacity="0.0"
     inkscape:pagecheckerboard="true"
     inkscape:deskcolor="#d1d1d1"
     inkscape:document-units="mm"
     showgrid="false"
     inkscape:zoom="0.46057099"
     inkscape:cx="341.96683"
     inkscape:cy="785.9809"
     inkscape:window-width="1366"
     inkscape:window-height="697"
     inkscape:window-x="-8"
     inkscape:window-y="-8"
     inkscape:window-maximized="1"
     inkscape:current-layer="layer1" />
  <defs
     id="defs395" />
  <g
     inkscape:label="Layer 1"
     inkscape:groupmode="layer"
     id="layer1">
    <circle
       style="opacity:0.702997;fill:none;stroke:#000000;stroke-width:0.272206;stroke-dasharray:none;stroke-opacity:1"
       id="path668"
       cx="-90.817688"
       cy="-197.22525"
       r="72.384979"
       transform="rotate(173.96307)" />
    <path
       style="color:#000000;opacity:0.702997;fill:#000000;-inkscape-stroke:none"
       d="m 110.88281,101.02148 c -33.592446,-0.46691 -65.990564,21.12342 -78.714693,52.17453 -13.284377,30.50407 -6.411844,68.39707 16.875481,92.19406 22.406157,24.11405 59.320152,32.91051 90.228842,21.65683 32.03781,-10.88242 55.65827,-42.35486 56.92696,-76.2014 2.12686,-32.90274 -16.94301,-65.79167 -46.42456,-80.47866 -11.97699,-6.15462 -25.42927,-9.36586 -38.89203,-9.34536 z m 0,-0.32226 c 33.71933,-0.46787 66.23762,21.20609 79.01107,52.37305 13.33631,30.61821 6.43478,68.65304 -16.94005,92.53859 -22.48971,24.20427 -59.54156,33.03752 -90.566151,21.73966 C 50.230081,256.42547 26.519038,224.83603 25.244395,190.86173 23.109842,157.8347 42.254494,124.82391 71.845847,110.08058 83.86736,103.90262 97.36974,100.67864 110.88281,100.69922 Z"
       id="path4614" />
    <text
       xml:space="preserve"
       style="font-weight:bold;font-size:16.9333px;font-family:Helvetica;-inkscape-font-specification:'Helvetica Bold';opacity:0.929825;fill:#000000;fill-opacity:1;stroke:#000000;stroke-width:0.264583;stroke-dasharray:none;stroke-opacity:1"
       id="text2278"><textPath
         xlink:href="#path668"
         id="textPath2280"><tspan
           id="tspan2276"
           style="fill:#000000;stroke-width:0.264583">RINGIN AGUNG I - SIDODADI</tspan></textPath></text>
    <g
       id="g4536">
      <g
         id="Layer1001"
         transform="matrix(0.17833321,0,0,0.17833321,9.8068851,105.98775)">
        <path
           d="M 202.0738,328.3408 C 286.8395,305.3186 278.5867,173.8574 390.7112,208.5367 391.0313,95.6569 521.6774,136.9792 563.284,68.3701 c 66.8625,74.8418 175.5089,29.8038 176.7111,142.45 101.7342,-41.9791 111.4444,87.1566 191.7895,118.7963 -56.9624,71.5642 29.8345,156.059 -75.3814,208.724 60.8447,95.3152 -66.8351,133.9237 -54.738,215.8086 C 724.6904,719.7859 645.2285,839.1278 572.2331,745.0738 493.7808,835.505 428.2616,723.9808 342.8456,755.2185 346.4808,674.5397 215.8107,619.2299 285.1065,537.0591 176.3485,502.8034 252.6332,388.9598 202.0738,328.3408 Z"
           style="fill:#ffffff;fill-rule:evenodd;stroke:#1b1918;stroke-width:4.2463;stroke-linecap:butt;stroke-linejoin:miter;stroke-dasharray:none"
           id="path134" />
        <path
           d="m 221.1825,332.7299 c 80.3747,-21.8296 72.5494,-146.481 178.8657,-113.5981 0.3036,-107.0325 124.1821,-67.8508 163.6334,-132.9059 63.399,70.965 166.4175,28.26 167.5574,135.0711 96.4642,-39.8046 105.6714,82.6417 181.8546,112.6425 -54.0117,67.8571 28.2891,147.975 -71.4765,197.9119 57.6928,90.3777 -63.3731,126.9863 -51.9026,204.6295 -72.9874,-32.583 -148.3331,80.5768 -217.5473,-8.6051 -74.3884,85.7468 -136.5136,-20.0003 -217.505,9.6192 C 358.109,660.9954 234.2078,608.5507 299.914,530.6364 196.7897,498.1552 269.1228,390.2088 221.1825,332.7299 Z"
           style="fill:#ffec00;fill-rule:evenodd;stroke:#1b1918;stroke-width:3.1846;stroke-linecap:butt;stroke-linejoin:miter;stroke-dasharray:none"
           id="path136" />
        <path
           d="M 567.2772,200.0191 A 252.1954,250.9929 0 0 1 819.4726,451.012 252.1954,250.9929 0 1 1 567.2772,200.0191 Z"
           style="fill:#e30016;fill-rule:evenodd;stroke:#1b1918;stroke-width:5.3293;stroke-linecap:butt;stroke-linejoin:miter;stroke-dasharray:none"
           id="path138" />
        <path
           d="m 705.3058,361.8944 c 9.8161,-14.7504 28.2935,-16.7383 50.7069,-12.9253 8.2853,23.6135 22.2876,40.0186 25.602,58.9094 l -39.7701,18.3937 c -24.8563,-9.694 -22.8678,-43.4985 -36.5388,-64.3778 z"
           style="fill:#ffffff;fill-rule:evenodd;stroke:#1b1918;stroke-width:3.1847;stroke-linecap:butt;stroke-linejoin:miter;stroke-dasharray:none"
           id="path140" />
        <path
           d="m 427.032,362.7264 c -9.9918,-14.7503 -28.7998,-16.7382 -51.6143,-12.9252 -8.4336,23.6134 -22.6864,40.0186 -26.0601,58.9094 l 40.4818,18.3936 c 25.3011,-9.6939 23.277,-43.4985 37.1926,-64.3778 z"
           style="fill:#ffffff;fill-rule:evenodd;stroke:#1b1918;stroke-width:3.1768;stroke-linecap:butt;stroke-linejoin:miter;stroke-dasharray:none"
           id="path142" />
        <path
           d="m 745.3245,394.2076 33.8045,-13.1739 c 8.521,8.1069 13.7026,17.447 6.9598,31.1947 -13.7537,7.1668 -28.502,11.8477 -44.2442,14.0438 13.8479,-11.9569 12.8329,-22.4279 3.4799,-32.0646 z"
           style="fill:#ffffff;fill-rule:evenodd;stroke:#1b1918;stroke-width:3.1847;stroke-linecap:butt;stroke-linejoin:miter;stroke-dasharray:none"
           id="path144" />
        <path
           d="m 386.2972,395.0396 -34.4095,-13.1738 c -8.6735,8.1069 -13.9478,17.4469 -7.0843,31.1946 13.9998,7.1668 29.012,11.8477 45.036,14.0438 -14.0958,-11.9569 -13.0626,-22.4278 -3.5422,-32.0646 z"
           style="fill:#ffffff;fill-rule:evenodd;stroke:#1b1918;stroke-width:3.1768;stroke-linecap:butt;stroke-linejoin:miter;stroke-dasharray:none"
           id="path146" />
        <path
           d="m 705.3058,361.8944 c 4.2283,-7.2297 11.922,-12.2714 24.6788,-14.116 l 15.3326,23.2204 -9.4381,8.0464 c -15.5352,-3.7284 -19.0151,-19.7607 -30.5733,-17.1508 z"
           style="fill:#ffffff;fill-rule:evenodd;stroke:#1b1918;stroke-width:3.1847;stroke-linecap:butt;stroke-linejoin:miter;stroke-dasharray:none"
           id="path148" />
        <path
           d="m 427.032,362.7264 c -4.3039,-7.2297 -12.1353,-12.2713 -25.1204,-14.116 l -15.607,23.2205 10.6013,6.3064 c 15.8132,-3.7284 18.3611,-18.0208 30.1261,-15.4109 z"
           style="fill:#ffffff;fill-rule:evenodd;stroke:#1b1918;stroke-width:3.1768;stroke-linecap:butt;stroke-linejoin:miter;stroke-dasharray:none"
           id="path150" />
        <path
           d="M 356.733,355.1104 C 408.2725,262.771 488.2053,219.905 567.8649,221.9913 c 82.1877,2.1528 163.9899,51.9982 207.6615,134.141 l -39.6473,22.9129 C 662.1266,227.5037 473.8085,224.5874 396.906,378.1373 Z"
           style="fill:#ffffff;fill-rule:evenodd;stroke:#1b1918;stroke-width:3.1847;stroke-linecap:butt;stroke-linejoin:miter;stroke-dasharray:none"
           id="path152" />
        <path
           d="m 401.0709,343.171 -2.1764,3.3264 -3.4243,-0.4645 -4.0028,6.1171 1.7334,3.0492 -2.1371,3.2664 -7.3811,-13.7486 2.1348,-3.2627 z m -8.1581,2.5407 -5.5528,-0.7776 2.8185,4.9561 z m -1.5738,-12.6102 3.9552,-5.4105 c 0.8923,-1.2209 1.6407,-2.0982 2.247,-2.6303 0.8141,-0.7129 1.6872,-1.1931 2.6144,-1.4326 0.9269,-0.2452 1.8527,-0.2551 2.7819,-0.0377 0.9241,0.2191 1.8972,0.7231 2.9118,1.5111 0.8937,0.6942 1.5508,1.4409 1.9768,2.2437 0.5228,0.9796 0.7787,1.9992 0.7685,3.0583 -0.004,0.801 -0.2236,1.7189 -0.6545,2.7518 -0.3234,0.7728 -0.8853,1.7037 -1.6855,2.7981 l -4.0722,5.5715 z m 4.0073,-1.552 7.1785,5.5766 1.6126,-2.2062 c 0.6024,-0.8243 1.0023,-1.4468 1.2013,-1.8658 0.2642,-0.5507 0.4031,-1.0649 0.4207,-1.5446 0.0207,-0.4827 -0.1397,-1.0099 -0.4799,-1.5845 -0.3373,-0.5783 -0.9281,-1.1934 -1.7663,-1.8442 -0.8379,-0.6509 -1.5517,-1.0497 -2.1483,-1.1968 -0.5942,-0.1508 -1.1475,-0.1409 -1.6626,0.0221 -0.5125,0.1652 -1.0165,0.4867 -1.5097,0.972 -0.3679,0.3574 -0.9961,1.1404 -1.8763,2.3445 z m 17.5043,-4.9504 -9.9298,-9.5457 2.4647,-2.7246 3.911,3.7595 4.7936,-5.2996 -3.9106,-3.7593 2.4647,-2.7247 9.9295,9.5454 -2.4645,2.7247 -4.3409,-4.1729 -4.794,5.2996 4.3407,4.1729 z m 12.2246,-13.3518 -9.6006,-9.8968 2.5554,-2.6348 9.601,9.8968 z m 7.8855,-8.1827 -7.4021,-8.7781 -3.9881,3.5739 -1.5055,-1.7852 10.6846,-9.5749 1.5055,1.7853 -3.9693,3.5569 7.4021,8.778 z m 11.961,-10.5446 -3.5178,-4.6415 -9.9963,-2.2351 3.3287,-2.6813 6.6356,1.688 -0.072,-6.9743 3.2667,-2.6311 -0.3028,10.5553 3.5062,4.6265 z m 21.0555,-15.5707 -3.227,2.2439 -3.0061,-1.7533 -5.9338,4.1261 0.4986,3.4966 -3.1682,2.2031 -1.8477,-15.598 3.1652,-2.2008 z m -8.4875,-0.7949 -4.8657,-2.8652 0.8122,5.6837 z m 15.3119,-3.2816 -6.3743,-12.358 3.1913,-1.7489 2.8236,5.4742 3.6062,-8.9988 4.2769,-2.344 -3.4636,8.0716 10.1454,4.1174 -4.115,2.2558 -7.3284,-3.4257 -1.4984,3.4707 1.927,3.7367 z m 30.9481,-14.4117 -3.6088,1.503 -2.5869,-2.3593 -6.6365,2.7643 -0.2174,3.5269 -3.5433,1.476 1.3383,-15.6529 3.5399,-1.4743 z m -8.1417,-2.5968 -4.1816,-3.8455 -0.3518,5.7337 z m 10.0596,1.7895 -3.5141,-13.5192 7.3315,-2.0251 c 1.8414,-0.5086 3.2134,-0.7563 4.1111,-0.7444 0.9014,0.0105 1.6798,0.258 2.3426,0.7393 0.6636,0.4844 1.1001,1.1228 1.3079,1.9222 0.2645,1.0162 0.1049,1.9576 -0.4816,2.8278 -0.5871,0.8705 -1.6107,1.5985 -3.0742,2.1881 0.8396,0.136 1.5557,0.3427 2.1484,0.621 0.597,0.2773 1.4454,0.8286 2.5449,1.6512 l 2.7882,2.0565 -4.1613,1.1495 -3.2629,-2.2626 c -1.1671,-0.8008 -1.9528,-1.2921 -2.357,-1.474 -0.3994,-0.1795 -0.7977,-0.2719 -1.1931,-0.2707 -0.3989,0.002 -0.9981,0.1139 -1.8006,0.3356 l -0.7061,0.195 1.4672,5.6458 z m 1.4641,-8.7624 2.5759,-0.7115 c 1.6696,-0.4612 2.6937,-0.8048 3.0826,-1.0301 0.385,-0.2245 0.6639,-0.5072 0.8263,-0.8422 0.1661,-0.3359 0.1945,-0.7081 0.0888,-1.114 -0.1185,-0.4564 -0.37,-0.7781 -0.7524,-0.976 -0.3818,-0.1947 -0.8654,-0.2503 -1.4456,-0.1672 -0.2931,0.047 -1.1438,0.265 -2.5523,0.6539 l -2.7168,0.7506 z m 19.4899,3.2768 -1.0902,-5.7821 -7.9228,-6.6702 4.1465,-0.8308 5.1692,4.6097 3.0073,-6.2482 4.0694,-0.8155 -4.9184,9.2631 1.0868,5.7631 z m 25.5285,-3.456 -3.8772,0.3495 -1.8051,-3.0356 -7.1303,0.6429 -1.2078,3.3078 -3.8075,0.3432 5.7195,-14.5655 3.8032,-0.343 z m -7.0492,-4.9371 -2.9086,-4.9379 -1.9624,5.3773 z m 14.9882,4.4583 0.474,-13.9878 5.4093,0.1947 2.8735,9.6551 3.483,-9.4263 5.4218,0.195 -0.474,13.9879 -3.3375,-0.1202 0.3603,-11.0121 -3.8891,10.8851 -3.4711,-0.1247 -3.1271,-11.1379 -0.3853,11.0114 z m 36.792,2.8421 -3.871,-0.4196 -1.2095,-3.3349 -7.1184,-0.7713 -1.7983,3.0092 -3.8007,-0.4118 8.3104,-13.1732 3.797,0.4116 z m -6.0063,-6.2331 -1.9409,-5.419 -2.9216,4.8923 z m 7.7389,7.0407 2.8227,-13.6905 3.5351,0.7744 -1.1118,5.3921 6.8755,1.5066 1.1117,-5.3921 3.5348,0.7747 -2.8227,13.6905 -3.5348,-0.7747 1.2339,-5.9848 -6.8754,-1.5066 -1.2342,5.9848 z m 32.7418,9.4161 -3.702,-1.2402 -0.5105,-3.5212 -6.8077,-2.2802 -2.3655,2.558 -3.6346,-1.2175 10.7855,-11.1038 3.6309,1.216 z m -4.6182,-7.3843 -0.8053,-5.7166 -3.8443,4.159 z m 8.4087,9.0179 4.2268,-10.7841 -4.8997,-2.0407 0.8597,-2.1932 13.1264,5.4672 -0.8595,2.1932 -4.8761,-2.031 -4.2267,10.7841 z m 14.3581,6.5891 -0.0488,-15.4667 3.5388,1.7014 -0.1401,11.3641 8.1896,-7.4948 3.4787,1.6724 -11.4908,9.9196 z m 23.1457,13.0045 -3.4044,-1.9454 0.1508,-3.5572 -6.2603,-3.5773 -2.7958,2.0458 -3.3424,-1.91 12.6426,-8.7786 3.3392,1.9082 z m -3.166,-8.1567 0.2673,-5.7702 -4.544,3.3265 z m 13.0189,15.5637 3.4387,-4.7044 -0.4929,-10.5327 3.3735,2.6209 0.1361,7.0444 6.5163,-1.8771 3.3105,2.5721 -9.9686,2.4302 -3.4273,4.6888 z m 13.0717,1.7384 c 0.8898,-1.093 1.8476,-1.8297 2.8698,-2.213 0.7535,-0.2795 1.5801,-0.4022 2.4715,-0.3713 0.8913,0.0309 1.7419,0.2183 2.5546,0.5593 1.082,0.4558 2.1816,1.1639 3.295,2.1274 2.0177,1.745 3.2278,3.6297 3.6417,5.6593 0.4087,2.0294 -0.0978,3.9175 -1.5216,5.6671 -1.4123,1.7345 -3.1187,2.5718 -5.1149,2.5126 -1.9978,-0.0567 -4.0028,-0.9578 -6.0108,-2.6949 -2.0336,-1.7589 -3.2573,-3.6465 -3.6624,-5.6602 -0.4076,-2.0109 0.0839,-3.8741 1.4771,-5.5863 z m 2.9041,2.3885 c -0.9893,1.2158 -1.3796,2.4474 -1.1752,3.6958 0.2058,1.2456 0.86,2.3474 1.9613,3.2998 1.1043,0.955 2.262,1.4253 3.4775,1.4176 1.2138,-0.013 2.3273,-0.6409 3.3406,-1.8861 1.0018,-1.2305 1.4057,-2.446 1.2067,-3.6474 -0.1936,-1.2013 -0.8614,-2.2932 -2.0038,-3.2814 -1.1392,-0.9853 -2.3088,-1.474 -3.5033,-1.4655 -1.1965,0.0114 -2.2983,0.6319 -3.3038,1.8672 z m 17.6463,6.9211 4.5652,4.8736 c 1.0301,1.0996 1.7537,1.9984 2.1682,2.6991 0.5558,0.9406 0.8793,1.9049 0.9638,2.8863 0.0898,0.9822 -0.0454,1.9261 -0.3989,2.8383 -0.3549,0.9065 -0.9898,1.8184 -1.9037,2.7284 -0.8048,0.801 -1.6229,1.3535 -2.4588,1.6619 -1.0202,0.3787 -2.0373,0.4799 -3.0501,0.3036 -0.767,-0.1293 -1.612,-0.4966 -2.5344,-1.0967 -0.6894,-0.4502 -1.4936,-1.1679 -2.4171,-2.1535 l -4.701,-5.0182 z m 0.8597,4.3231 -6.4655,6.4366 1.8612,1.9871 c 0.6959,0.7424 1.2297,1.2467 1.5999,1.5149 0.4864,0.3554 0.9572,0.5768 1.4142,0.6703 0.4589,0.0964 0.9893,0.0151 1.5933,-0.2409 0.6064,-0.2528 1.2884,-0.7585 2.043,-1.51 0.7548,-0.7512 1.2483,-1.4156 1.483,-2.0004 0.237,-0.5811 0.3144,-1.1464 0.2387,-1.696 -0.0782,-0.5476 -0.3073,-1.1109 -0.695,-1.6894 -0.2849,-0.4306 -0.9369,-1.1926 -1.9531,-2.2768 z m 1.5704,19.1497 10.2467,-9.1825 2.3712,2.8117 -4.036,3.6167 4.6117,5.4686 4.0357,-3.6164 2.3709,2.8116 -10.2464,9.1826 -2.3712,-2.8117 4.4793,-4.0144 -4.6114,-5.4686 -4.4793,4.0141 z m 20.5903,27.7713 -2.2326,-3.287 1.6481,-3.1289 -4.1054,-6.0446 -3.3829,0.5754 -2.192,-3.2272 15.0959,-2.1767 2.19,3.2238 z m 0.6228,-8.7621 2.694,-5.0653 -5.4983,0.9363 z"
           style="fill:#1b1918;fill-rule:evenodd"
           id="path154" />
        <path
           d="m 708.5386,560.9301 c 15.6923,-12.8705 31.0692,-20.9909 36.8172,-46.9429 3.1982,-14.4398 14.5963,-30.8001 26.514,-33.964 16.3324,-4.336 33.1393,15.9622 18.2468,32.1591 -11.1073,5.3841 2.1351,-25.2273 -15.1767,-20.3867 -9.9877,2.7929 -12.4336,23.7796 -14.3478,39.2299 -1.4224,11.4845 -3.2975,23.7531 -10.3611,33.253 -10.7511,14.46 -31.7592,28.0085 -54.32,41.4191 l -50.0102,-1.7399 c -8.6997,-30.7478 41.7586,-28.6852 62.6378,-43.0276 z"
           style="fill:#ffffff;fill-rule:evenodd;stroke:#1b1918;stroke-width:2.1233;stroke-linecap:butt;stroke-linejoin:miter;stroke-dasharray:none"
           id="path156" />
        <path
           d="m 420.4536,562.2244 c -15.9468,-12.8705 -31.573,-20.9909 -37.4141,-46.9429 -3.2501,-14.4398 -14.833,-30.8001 -26.9441,-33.964 -16.5971,-4.3361 -33.6765,15.9622 -18.5426,32.1591 11.2875,5.3841 -2.1697,-25.2274 15.4228,-20.3867 10.1497,2.7929 12.6352,23.7796 14.5804,39.2299 1.4456,11.4845 3.351,23.7531 10.5291,33.253 10.9255,14.46 32.2742,28.0085 55.2009,41.4191 l 50.8211,-1.7399 c 8.8408,-30.7478 -42.4357,-28.6853 -63.6535,-43.0276 z"
           style="fill:#ffffff;fill-rule:evenodd;stroke:#1b1918;stroke-width:2.1146;stroke-linecap:butt;stroke-linejoin:miter;stroke-dasharray:none"
           id="path158" />
        <path
           d="m 644.9727,599.003 c 6.7016,14.8316 24.5885,-25.2692 45.0853,-8.0759 l -24.4834,27.8391 c -12.6467,-4.822 -19.8863,-11.2961 -20.6019,-19.7632 z"
           style="fill:#ffffff;fill-rule:evenodd;stroke:#1b1918;stroke-width:2.1233;stroke-linecap:butt;stroke-linejoin:miter;stroke-dasharray:none"
           id="path160" />
        <path
           d="m 485.0502,600.2973 c -6.8102,14.8316 -24.9872,-25.2692 -45.8163,-8.0759 l 24.8804,27.839 c 12.8517,-4.822 20.2087,-11.296 20.9359,-19.7631 z"
           style="fill:#ffffff;fill-rule:evenodd;stroke:#1b1918;stroke-width:2.1146;stroke-linecap:butt;stroke-linejoin:miter;stroke-dasharray:none"
           id="path162" />
        <path
           d="m 444.6767,588.9323 c 54.2574,61.5112 176.1968,68.3262 237.4983,0 14.3944,0.5058 29.0864,11.6987 23.8765,34.6736 -82.1278,80.5031 -215.6916,67.3148 -283.2616,0.9949 -9.7743,-18.8105 4.1492,-37.5773 21.8868,-35.6685 z"
           style="fill:#ffffff;fill-rule:evenodd;stroke:#1b1918;stroke-width:3.1847;stroke-linecap:butt;stroke-linejoin:miter;stroke-dasharray:none"
           id="path164" />
        <path
           d="m 435.361,620.9065 12.7324,-14.3156 3.4268,3.1235 -5.6401,6.3414 12.5448,-0.047 4.5926,4.1864 -11.3434,-0.2454 -1.0576,14.8629 -4.4195,-4.0286 1.3221,-10.9656 -4.8812,-0.1171 -3.8498,4.3288 z m 34.5153,26.2389 -4.2118,-2.6646 0.6279,-4.7738 -7.7445,-4.8994 -3.9005,2.7036 -4.1352,-2.6158 17.5808,-11.5937 4.1309,2.6133 z m -3.1474,-11.0013 1.0483,-7.744 -6.3388,4.3971 z m 5.0701,12.5841 7.435,-17.7324 8.9132,3.8305 c 2.2397,0.9623 3.8022,1.8238 4.6832,2.5775 0.8866,0.756 1.4595,1.6696 1.7282,2.7448 0.2674,1.0791 0.1849,2.1402 -0.2542,3.1887 -0.5593,1.3331 -1.478,2.234 -2.7635,2.7045 -1.2858,0.4706 -2.8899,0.4241 -4.8195,-0.1372 0.7237,0.8419 1.2671,1.6603 1.6311,2.4545 0.3685,0.7966 0.765,2.1022 1.1919,3.913 l 1.1064,4.5573 -5.0593,-2.1742 -1.4111,-5.1755 c -0.5116,-1.8423 -0.8946,-3.03 -1.1491,-3.5629 -0.2512,-0.5269 -0.5721,-0.9572 -0.9655,-1.2821 -0.3983,-0.3268 -1.0828,-0.699 -2.0588,-1.1185 l -0.8586,-0.3691 -3.1048,7.4049 z m 8.5328,-8.4041 3.1326,1.3459 c 2.0296,0.8722 3.3242,1.341 3.8923,1.4144 0.5632,0.0712 1.0692,-0.008 1.5006,-0.2418 0.4366,-0.2313 0.7651,-0.6162 0.9882,-1.1486 0.2508,-0.5986 0.2616,-1.159 0.0419,-1.6922 -0.2219,-0.5287 -0.6568,-0.9885 -1.3002,-1.3771 -0.3288,-0.1899 -1.3499,-0.6531 -3.062,-1.3887 l -3.3032,-1.4196 z m 33.3763,24.3147 -4.7234,-1.5537 -0.5318,-4.786 -8.685,-2.857 -3.1383,3.5787 -4.6374,-1.5253 14.288,-15.5551 4.6324,1.5239 z m -5.6826,-9.9034 -0.8331,-7.7709 -5.1001,5.8192 z m 8.2652,10.4326 3.3038,-18.9711 4.3951,0.7846 7.0141,14.3609 2.2144,-12.7134 4.1967,0.7489 -3.3043,18.9712 -4.5358,-0.8099 -6.9156,-14.093 -2.172,12.471 z m 33.7289,-2.2504 0.2245,-3.2476 9.866,0.6984 -0.5295,7.6672 c -1.0117,0.7242 -2.45,1.3189 -4.316,1.7937 -1.8601,0.4706 -3.7262,0.6398 -5.5976,0.5071 -2.3743,-0.1681 -4.4124,-0.7347 -6.1203,-1.7053 -1.7025,-0.9703 -2.9455,-2.2762 -3.7256,-3.9092 -0.7795,-1.6331 -1.1052,-3.3775 -0.9779,-5.2249 0.1389,-2.0041 0.7585,-3.7493 1.8553,-5.2404 1.1012,-1.4865 2.6328,-2.5826 4.5989,-3.2797 1.5038,-0.5363 3.3338,-0.7256 5.5017,-0.5723 2.8185,0.1996 4.9882,0.8564 6.5053,1.971 1.5114,1.1182 2.4366,2.5727 2.7686,4.3764 l -4.6185,0.4011 c -0.2517,-0.9664 -0.8031,-1.7558 -1.6481,-2.3687 -0.8399,-0.6077 -1.9204,-0.9586 -3.2425,-1.0522 -1.9985,-0.1414 -3.627,0.2826 -4.8807,1.2773 -1.2535,0.9944 -1.9559,2.5495 -2.1022,4.6653 -0.1579,2.2858 0.3215,4.0413 1.4377,5.2667 1.1214,1.2257 2.6465,1.9092 4.5871,2.0464 0.9569,0.0677 1.9304,-0.0253 2.9148,-0.2747 0.9893,-0.2489 1.8414,-0.5797 2.5654,-0.987 l 0.1684,-2.4378 z m 27.6174,6.8358 -1.3782,-15.9475 -6.7161,0.5947 -0.2804,-3.2428 17.9944,-1.5939 0.2806,3.2428 -6.6847,0.5922 1.378,15.9474 z m 31.8223,-4.703 -4.8909,0.8731 -2.6889,-3.9731 -8.9935,1.6053 -1.1115,4.6516 -4.8019,0.8572 5.4026,-20.5251 4.7968,-0.8563 z m -9.6103,-6.0435 -4.3387,-6.4649 -1.8048,7.5617 z m 12.0036,5.1052 -5.2449,-18.5176 9.3081,-2.7022 c 2.3386,-0.6789 4.0884,-1.0046 5.2418,-0.9806 1.1588,0.023 2.1719,0.368 3.049,1.0321 0.879,0.6685 1.4743,1.5455 1.7846,2.6402 0.3941,1.3921 0.2399,2.6776 -0.4665,3.8625 -0.7064,1.1846 -1.982,2.1708 -3.8305,2.9639 1.0854,0.1931 2.0166,0.4828 2.7933,0.8686 0.7812,0.3841 1.9014,1.146 3.3585,2.281 l 3.6929,2.8369 -5.2835,1.5338 -4.3137,-3.1232 c -1.5429,-1.1055 -2.579,-1.7844 -3.1079,-2.0367 -0.5227,-0.2494 -1.0395,-0.3792 -1.5472,-0.3812 -0.5128,-3e-4 -1.2764,0.1468 -2.2952,0.4425 l -0.8966,0.2605 2.1898,7.7326 z m 1.4068,-11.9678 3.2712,-0.9497 c 2.1195,-0.6154 3.4172,-1.076 3.9039,-1.3807 0.4822,-0.3033 0.8257,-0.6877 1.0159,-1.1441 0.1956,-0.4578 0.2115,-0.9663 0.0542,-1.5222 -0.1772,-0.625 -0.5174,-1.0672 -1.0197,-1.3413 -0.5008,-0.2699 -1.1245,-0.3501 -1.866,-0.2424 -0.3739,0.0621 -1.455,0.3526 -3.2434,0.8717 l -3.4492,1.0014 z m 12.4359,-12.2936 4.1791,-1.9729 4.3577,9.4609 c 0.6925,1.5035 1.1928,2.45 1.4976,2.8454 0.5074,0.6313 1.1911,1.0111 2.0523,1.129 0.8682,0.1194 1.8754,-0.0935 3.0279,-0.6378 1.1673,-0.551 1.9579,-1.1715 2.3641,-1.8632 0.4068,-0.6919 0.5321,-1.3595 0.377,-2.0134 -0.155,-0.6543 -0.5473,-1.671 -1.184,-3.0529 l -4.4513,-9.6642 4.1792,-1.9729 4.2287,9.1806 c 0.9658,2.0967 1.5386,3.6323 1.7113,4.6048 0.1732,0.972 0.0969,1.8987 -0.2333,2.7817 -0.3254,0.8807 -0.915,1.7331 -1.7612,2.5631 -0.8501,0.8319 -2.0843,1.6322 -3.7125,2.4009 -1.965,0.9275 -3.5419,1.4394 -4.7333,1.5321 -1.1917,0.0924 -2.2244,-0.0289 -3.0991,-0.3676 -0.8754,-0.339 -1.5557,-0.7994 -2.056,-1.3898 -0.7339,-0.8706 -1.5497,-2.2865 -2.45,-4.2412 z m 28.9641,7.2516 -10.0831,-16.3367 3.7846,-2.3938 14.7041,5.9204 -6.7575,-10.9479 3.6145,-2.2862 10.0831,16.3364 -3.9062,2.4712 -14.4538,-5.7886 6.6282,10.739 z m 34.4676,-26.5984 -3.6907,3.3642 -4.3597,-1.927 -6.787,6.1866 1.4925,4.5408 -3.6235,3.3032 -6.1623,-20.3045 3.6199,-3.2998 z m -11.313,0.0304 -7.0637,-3.1547 2.4276,7.3808 z"
           style="fill:#1b1918;fill-rule:evenodd"
           id="path166" />
        <path
           d="m 453.1197,484.2099 c 75.6297,49.8917 152.689,60.214 232.2984,0 33.0916,-11.612 93.0985,20.006 6.4608,53.4718 -33.2524,-17.484 -55.1638,-13.4209 -68.5312,6.8773 21.2841,-2.8564 40.4869,-4.123 47.199,4.1518 4.6294,5.7082 0.9311,8.057 -3.2782,12.2434 -17.7208,17.6269 -28.7915,16.5448 -40.6133,11.7414 -19.0653,-7.7469 -26.5189,-41.7504 -39.0822,-3.909 -11.8007,-8.3849 -25.1758,-10.9009 -36.6832,-0.6846 -6.933,-24.2568 -16.1454,-20.7092 -26.3931,-4.5228 -7.6359,15.6495 -27.5246,13.4197 -36.2547,9.3518 -42.578,-19.8387 -21.3328,-31.5537 24.2843,-29.2498 -14.1263,-21.5729 -36.7458,-20.2146 -64.1293,-5.9917 -83.8695,-30.4421 -33.1211,-66.2887 4.7227,-53.4796 z"
           style="fill:#ffffff;fill-rule:evenodd;stroke:#1b1918;stroke-width:3.1847;stroke-linecap:butt;stroke-linejoin:miter;stroke-dasharray:none"
           id="path168" />
        <path
           d="m 541.5597,307.7131 17.2751,26.2234 -0.6205,115.7412 c -5.4293,-37.5366 -13.9872,-74.5309 -31.1955,-110.0243 4.8469,-10.647 2.6099,-21.6665 14.5409,-31.9403 z"
           style="fill:#ffffff;fill-rule:evenodd;stroke:#1b1918;stroke-width:3.1847;stroke-linecap:butt;stroke-linejoin:miter;stroke-dasharray:none"
           id="path170" />
        <path
           d="m 596.3636,304.2151 -14.1202,26.2234 -9.2161,129.6693 c 11.7407,-41.3175 12.0405,-86.6143 35.2216,-123.9523 -3.9618,-10.647 0.4034,-20.548 -11.8853,-31.9404 z"
           style="fill:#ffffff;fill-rule:evenodd;stroke:#1b1918;stroke-width:3.195;stroke-linecap:butt;stroke-linejoin:miter;stroke-dasharray:none"
           id="path172" />
        <path
           d="m 470.585,349.694 c 88.8914,-1.7766 -10.0863,139.2543 71.1856,149.8673 -51.1865,-63.3361 -1.395,-136.1232 -43.1302,-169.1162 108.855,4.3445 -9.1167,109.6669 60.9389,169.7234 4.6607,-20.9614 -11.6758,-38.8883 -13.1612,-53.5448 -1.4854,-14.6565 0.4397,-27.5352 7.2998,-42.8759 9.6831,-21.6542 5.6456,-48.3666 -9.8745,-72.674 l 26.1792,-24.8909 25.0233,24.9104 c -12.9018,20.1309 -23.9948,47.168 -13.3364,70.341 23.5557,51.2139 -10.1291,67.5236 -4.2502,99.5443 71.0637,-53.1004 -48.3867,-161.4152 63.9637,-171.2394 -43.2821,34.0341 5.4597,95.9245 -44.7861,170.748 83.6664,-9.3533 -26.5202,-153.9336 74.3796,-151.0634 -39.9889,30.1826 -19.3193,60.9834 -14.9162,92.491 4.7383,33.9042 -4.5015,65.775 -87.1045,72.6547 -62.1564,-2.0857 -87.6813,-29.0668 -89.4769,-54.2448 -2.5413,-35.629 31.7146,-78.1529 -8.9339,-110.6307 z"
           style="fill:#ffffff;fill-rule:evenodd;stroke:#1b1918;stroke-width:4.2463;stroke-linecap:butt;stroke-linejoin:miter;stroke-dasharray:none"
           id="path174" />
      </g>
      <circle
         style="opacity:1;fill:none;stroke:#000000;stroke-width:1.33075;stroke-dasharray:none;stroke-opacity:1"
         id="circle4461"
         cx="110.88232"
         cy="186.44965"
         r="70.774216" />
    </g>
    <circle
       style="opacity:0.702997;fill:none;stroke:#000000;stroke-width:0.330145;stroke-dasharray:none;stroke-opacity:1"
       id="circle4463"
       cx="-87.314476"
       cy="115.33453"
       r="87.79216" />
    <g
       aria-label="LAMPUNG SELATAN"
       id="text4569"
       style="font-weight:bold;font-size:16.9333px;font-family:Helvetica;-inkscape-font-specification:'Helvetica Bold';opacity:1;stroke:#000000;stroke-width:1.32292">
      <path
         d="m 9.1943312,248.51501 h 1.6453748 v 10.69906 h 6.15155 v 1.44694 H 9.1943312 Z"
         style="font-weight:normal;-inkscape-font-specification:Helvetica"
         id="path4578" />
      <path
         d="m 24.846059,255.68355 -1.843812,-5.36607 -1.959566,5.36607 z m -2.703706,-7.16854 h 1.860348 l 4.406957,12.146 h -1.80247 L 25.375224,257.023 h -4.803832 l -1.314645,3.63801 h -1.686716 z m 0.851626,0 z"
         style="font-weight:normal;-inkscape-font-specification:Helvetica"
         id="path4580" />
      <path
         d="m 29.864864,248.51501 h 2.356441 l 3.489186,10.26912 3.464381,-10.26912 h 2.331636 v 12.146 h -1.562692 v -7.16854 q 0,-0.37207 0.01654,-1.23196 0.01654,-0.8599 0.01654,-1.84382 l -3.464382,10.24432 h -1.628838 l -3.489185,-10.24432 v 0.37207 q 0,0.44649 0.01654,1.36426 0.02481,0.9095 0.02481,1.33945 v 7.16854 h -1.570961 z"
         style="font-weight:normal;-inkscape-font-specification:Helvetica"
         id="path4582" />
      <path
         d="m 44.168871,248.51501 h 5.465289 q 1.62057,0 2.612755,0.91777 0.992186,0.9095 0.992186,2.56314 0,1.42214 -0.884699,2.48047 -0.884699,1.05006 -2.720242,1.05006 h -3.819915 v 5.13456 h -1.645374 z m 7.408319,3.48918 q 0,-1.33945 -0.992186,-1.81901 -0.545702,-0.25631 -1.496546,-0.25631 h -3.274213 v 4.20852 h 3.274213 q 1.10794,0 1.794202,-0.47129 0.69453,-0.47129 0.69453,-1.66191 z"
         style="font-weight:normal;-inkscape-font-specification:Helvetica"
         id="path4584" />
      <path
         d="m 57.092089,248.51501 v 7.50753 q 0,1.32292 0.496093,2.19935 0.735871,1.32291 2.480464,1.32291 2.091858,0 2.844265,-1.4304 0.405143,-0.77721 0.405143,-2.09186 v -7.50753 h 1.670179 v 6.82127 q 0,2.24069 -0.60358,3.44785 -1.107941,2.19934 -4.183716,2.19934 -3.075775,0 -4.175447,-2.19934 -0.60358,-1.20716 -0.60358,-3.44785 v -6.82127 z m 3.117116,0 z"
         style="font-weight:normal;-inkscape-font-specification:Helvetica"
         id="path4586" />
      <path
         d="m 67.534843,248.51501 h 1.94303 l 6.135014,9.83917 v -9.83917 h 1.562692 v 12.146 h -1.843812 l -6.225964,-9.8309 v 9.8309 h -1.57096 z m 4.712881,0 z"
         style="font-weight:normal;-inkscape-font-specification:Helvetica"
         id="path4588" />
      <path
         d="m 85.013845,248.20081 q 1.71152,0 2.96002,0.66146 1.810739,0.95085 2.215881,3.33209 h -1.628838 q -0.297655,-1.33118 -1.231963,-1.93476 -0.934308,-0.61185 -2.356441,-0.61185 -1.686715,0 -2.844265,1.26504 -1.149282,1.26503 -1.149282,3.7703 0,2.16627 0.950845,3.53053 0.950844,1.35599 3.100579,1.35599 1.645375,0 2.720242,-0.95085 1.083136,-0.95911 1.107941,-3.09231 h -3.803378 v -1.36425 h 5.332997 v 6.49881 h -1.058331 l -0.396874,-1.56269 q -0.83509,0.91777 -1.48001,1.2733 -1.083136,0.61185 -2.753315,0.61185 -2.158004,0 -3.712428,-1.39733 -1.694983,-1.75286 -1.694983,-4.8121 0,-3.05097 1.653642,-4.85344 1.570961,-1.71979 4.067961,-1.71979 z m -0.272851,-0.0165 z"
         style="font-weight:normal;-inkscape-font-specification:Helvetica"
         id="path4590" />
      <path
         d="m 98.714275,256.74188 q 0.05788,1.03352 0.487824,1.67845 0.818551,1.20715 2.885611,1.20715 0.92604,0 1.68671,-0.26458 1.47174,-0.51263 1.47174,-1.83554 0,-0.99219 -0.62011,-1.41387 -0.62839,-0.41341 -1.96784,-0.71933 l -1.64537,-0.37207 q -1.612303,-0.3638 -2.282029,-0.80202 -1.15755,-0.76067 -1.15755,-2.27376 0,-1.6371 1.132746,-2.68716 1.132745,-1.05007 3.208063,-1.05007 1.90996,0 3.24114,0.92604 1.33945,0.91777 1.33945,2.94349 h -1.54615 q -0.12403,-0.97565 -0.52917,-1.49655 -0.75241,-0.95085 -2.55488,-0.95085 -1.4552,0 -2.091854,0.61185 -0.636652,0.61185 -0.636652,1.42214 0,0.89296 0.744139,1.30637 0.487827,0.26459 2.207617,0.66146 l 1.70325,0.38861 q 1.23196,0.28112 1.90169,0.76894 1.15755,0.85163 1.15755,2.4722 0,2.01744 -1.47175,2.8856 -1.46347,0.86816 -3.4065,0.86816 -2.26549,0 -3.547063,-1.15755 -1.281573,-1.14928 -1.256768,-3.11711 z m 3.323825,-8.5576 z"
         style="font-weight:normal;-inkscape-font-specification:Helvetica"
         id="path4592" />
      <path
         d="m 109.09088,248.51501 h 8.85526 v 1.48827 h -7.25122 v 3.68763 h 6.70552 v 1.40559 h -6.70552 v 4.11757 h 7.37524 v 1.44694 h -8.97928 z m 4.48964,0 z"
         style="font-weight:normal;-inkscape-font-specification:Helvetica"
         id="path4594" />
      <path
         d="m 120.22817,248.51501 h 1.64537 v 10.69906 h 6.15155 v 1.44694 h -7.79692 z"
         style="font-weight:normal;-inkscape-font-specification:Helvetica"
         id="path4596" />
      <path
         d="m 135.87989,255.68355 -1.84381,-5.36607 -1.95957,5.36607 z m -2.70371,-7.16854 h 1.86035 l 4.40696,12.146 h -1.80247 l -1.23197,-3.63801 h -4.80383 l -1.31464,3.63801 h -1.68672 z m 0.85163,0 z"
         style="font-weight:normal;-inkscape-font-specification:Helvetica"
         id="path4598" />
      <path
         d="m 148.53026,248.51501 v 1.44693 h -4.09277 v 10.69907 h -1.67018 v -10.69907 h -4.09276 v -1.44693 z"
         style="font-weight:normal;-inkscape-font-specification:Helvetica"
         id="path4600" />
      <path
         d="m 155.0208,255.68355 -1.84381,-5.36607 -1.95956,5.36607 z m -2.7037,-7.16854 h 1.86035 l 4.40695,12.146 h -1.80247 l -1.23196,-3.63801 h -4.80383 l -1.31465,3.63801 h -1.68671 z m 0.85162,0 z"
         style="font-weight:normal;-inkscape-font-specification:Helvetica"
         id="path4602" />
      <path
         d="m 160.08096,248.51501 h 1.94303 l 6.13501,9.83917 v -9.83917 h 1.56269 v 12.146 h -1.84381 l -6.22596,-9.8309 v 9.8309 h -1.57096 z m 4.71288,0 z"
         style="font-weight:normal;-inkscape-font-specification:Helvetica"
         id="path4604" />
    </g>
  </g>
</svg>
