<svg xmlns="http://www.w3.org/2000/svg" xmlns:xlink="http://www.w3.org/1999/xlink" x="0px" y="0px" viewBox="0 0 93.2 100.2" xml:space="preserve"><g><path d="M18.4,54.8c-0.3-1.1-0.8-4.2,0.6-7.7c1.4-3.5,4-5.3,5-5.9"></path><path d="M51.6,81.8c-1.1,0.5-2.9,1.1-5.2,1.2c-2.3,0-4.2-0.6-5.3-1.2c0.3-0.4,0.6-0.8,0.9-1.2
		c0.4-0.5,0.9-0.9,1.4-1c0.1,0,0.3-0.1,0.6-0.1c1.2-0.1,1.4,0.4,2.4,0.4c0.9,0,1.2-0.4,2.3-0.3c0.3,0,0.5,0.1,0.7,0.2
		c0.5,0.2,0.9,0.5,1.2,0.9C51,81,51.3,81.4,51.6,81.8z"></path><path d="M42.4,85l1.3,1c0.4,0.2,0.9,0.4,1.4,0.4c0.1,0,0.2,0,0.3,0h2c0.2,0,0.4,0,0.6,0
		c0.5-0.1,0.9-0.2,1.3-0.5l1.1-0.9"></path><path d="M49.4,72.7c-0.1,0.3-0.3,0.4-1.3,1.1c-1,0.7-2.8,0.7-3.8,0c-1-0.7-1.3-0.8-1.3-1.1"></path><g><path d="M29,62.3c0.2-0.1,0.7-0.5,1.5-0.5c0.9,0,1.5,0.4,1.6,0.5c0.5,0.5,1.4,1.1,2.6,1.3
			c0.9,0.2,1.7,0.1,2.1,0.1c0.5,0,0.8-0.1,2.7-0.6c0.6-0.2,1.2-0.3,1.6-0.4"></path><path d="M32.3,64.8c0.4-1,1.6-1.2,1.9-1.3"></path></g><g><path d="M63.1,62.3c-0.2-0.1-0.7-0.5-1.5-0.5c-0.9,0-1.5,0.4-1.6,0.5c-0.5,0.5-1.4,1.1-2.6,1.3
			c-0.9,0.2-1.7,0.1-2.1,0.1c-0.5,0-0.8-0.1-2.7-0.6c-0.6-0.2-1.2-0.3-1.6-0.4"></path><path d="M57.9,63.5c0.3,0.1,1.5,0.3,1.9,1.3"></path></g><path d="M21.8,83.7c0.8-1.3,0.9-2.9,0.2-4.3c-0.5-0.9-1.3-1.7-1.9-2.5c-2.2-2.9-2.1-7.3,0.1-10.1
		c1-1.4,2.5-2.4,3.4-3.9"></path><path d="M68.4,63.5c-0.2,4.7-1,8.6-2,12.6c-1.9,7.1-10.5,14.1-16,17.9c-1.4,1-2.9,1.4-4.5,1.4h0.2
		c-1.6,0-3.1-0.5-4.5-1.4c-5.4-3.8-14.1-10.8-16-17.9c-1.1-4-1.9-8.5-2-13.2c-1.5-1.6-8.1-9.3-7.4-20.2c0.3-4.9,1.9-10.2,5.3-13.9
		c7.6-8.4,19.9-9.4,28-17"></path><path d="M41.1,56.4c0,0-1.2-1.6-4-2.1c-2.8-0.5-6.3,0-6.3,0"></path><path d="M49.6,56.4c0,0,1.2-1.6,4-2.1s6.3,0,6.3,0"></path><g><path d="M56.6,26.9c-2.2,4.1-5.5,7.4-9.2,10.1c-3.7,2.7-8,4.6-11.5,7.4c-2.2,1.7-6.5,5.1-9.5,11
			c-1.5,2.8-2.3,5.7-2.7,7.5"></path><path d="M48.5,40.2c1.9,0.7,3.9,1.7,6,3c9.2,6,12.6,16,13.9,20.2"></path></g><path d="M31.9,17.7C30.1,14.2,30.6,12,31,11c0.9-2.5,3.5-4,5.7-5.2c2.6-1.5,5.1-3.8,8.1-4.4
		c1.9-0.4,5.1-0.2,14.5,8c6.5,5.8,11.8,11.5,15,19.7c3,7.8,3.8,16.6,0.7,24.5c-2.2,5.6-6.3,9.6-6.3,9.6c-0.1,0.1-0.2,0.2-0.3,0.3"></path><path d="M37.9,28.8c3-1.8,5.9-3.7,8.6-6c2.6-2.2,4.2-4.6,5.7-7.6"></path><path d="M76,50.2c0,0,1.3-3.2-3.8-7.9"></path><path d="M35,89c0,0,2.9,6-0.5,10.1"></path><path d="M57.4,88.6c0,0-2.9,6,0.5,10.1"></path></g></svg>